solid OpenSCAD_Model
  facet normal 1 -0 0
    outer loop
      vertex 36 0 1.5
      vertex 36 6 0
      vertex 36 6 1.5
    endloop
  endfacet
  facet normal 1 0 0
    outer loop
      vertex 36 6 0
      vertex 36 0 1.5
      vertex 36 0 0
    endloop
  endfacet
  facet normal 0 0 1
    outer loop
      vertex 5.30997 3.40798 1.5
      vertex 7.209 3.40798 1.5
      vertex 7.15421 4.20448 1.5
    endloop
  endfacet
  facet normal -0 0 1
    outer loop
      vertex 5.36549 4.21199 1.5
      vertex 7.15421 4.20448 1.5
      vertex 6.98996 4.74597 1.5
    endloop
  endfacet
  facet normal 0 0 1
    outer loop
      vertex 7.209 3.40798 1.5
      vertex 5.30997 3.40798 1.5
      vertex 7.15123 2.63175 1.5
    endloop
  endfacet
  facet normal 0 0 1
    outer loop
      vertex 6.27296 5.163 1.5
      vertex 6.98996 4.74597 1.5
      vertex 6.70271 5.05872 1.5
    endloop
  endfacet
  facet normal 0 -0 1
    outer loop
      vertex 5.36696 2.62049 1.5
      vertex 7.15123 2.63175 1.5
      vertex 5.30997 3.40798 1.5
    endloop
  endfacet
  facet normal 0 0 1
    outer loop
      vertex 6.98996 4.74597 1.5
      vertex 6.27296 5.163 1.5
      vertex 5.53198 4.75197 1.5
    endloop
  endfacet
  facet normal 0 0 1
    outer loop
      vertex 7.15123 2.63175 1.5
      vertex 5.36696 2.62049 1.5
      vertex 6.97797 2.08499 1.5
    endloop
  endfacet
  facet normal 0 -0 1
    outer loop
      vertex 5.53798 2.07598 1.5
      vertex 6.97797 2.08499 1.5
      vertex 5.36696 2.62049 1.5
    endloop
  endfacet
  facet normal 0 0 1
    outer loop
      vertex 5.53198 4.75197 1.5
      vertex 6.27296 5.163 1.5
      vertex 5.82971 5.06023 1.5
    endloop
  endfacet
  facet normal 0 -0 1
    outer loop
      vertex 6.26097 1.65598 1.5
      vertex 6.97797 2.08499 1.5
      vertex 5.53798 2.07598 1.5
    endloop
  endfacet
  facet normal 0 0 1
    outer loop
      vertex 6.98996 4.74597 1.5
      vertex 5.53198 4.75197 1.5
      vertex 5.36549 4.21199 1.5
    endloop
  endfacet
  facet normal 0 0 1
    outer loop
      vertex 6.97797 2.08499 1.5
      vertex 6.26097 1.65598 1.5
      vertex 6.68472 1.76323 1.5
    endloop
  endfacet
  facet normal 0 0 1
    outer loop
      vertex 7.15421 4.20448 1.5
      vertex 5.36549 4.21199 1.5
      vertex 5.30997 3.40798 1.5
    endloop
  endfacet
  facet normal 0 0 1
    outer loop
      vertex 6.26097 1.65598 1.5
      vertex 5.53798 2.07598 1.5
      vertex 5.83273 1.76099 1.5
    endloop
  endfacet
  facet normal 0 0 1
    outer loop
      vertex 12.0951 3.40798 1.5
      vertex 13.9942 3.40798 1.5
      vertex 13.9394 4.20448 1.5
    endloop
  endfacet
  facet normal -0 0 1
    outer loop
      vertex 12.1507 4.21199 1.5
      vertex 13.9394 4.20448 1.5
      vertex 13.7751 4.74597 1.5
    endloop
  endfacet
  facet normal 0 0 1
    outer loop
      vertex 13.9942 3.40798 1.5
      vertex 12.0951 3.40798 1.5
      vertex 13.9364 2.63175 1.5
    endloop
  endfacet
  facet normal 0 0 1
    outer loop
      vertex 13.0581 5.163 1.5
      vertex 13.7751 4.74597 1.5
      vertex 13.4879 5.05872 1.5
    endloop
  endfacet
  facet normal 0 -0 1
    outer loop
      vertex 12.1521 2.62049 1.5
      vertex 13.9364 2.63175 1.5
      vertex 12.0951 3.40798 1.5
    endloop
  endfacet
  facet normal 0 0 1
    outer loop
      vertex 13.7751 4.74597 1.5
      vertex 13.0581 5.163 1.5
      vertex 12.3171 4.75197 1.5
    endloop
  endfacet
  facet normal 0 0 1
    outer loop
      vertex 13.9364 2.63175 1.5
      vertex 12.1521 2.62049 1.5
      vertex 13.7631 2.08499 1.5
    endloop
  endfacet
  facet normal 0 -0 1
    outer loop
      vertex 12.3231 2.07598 1.5
      vertex 13.7631 2.08499 1.5
      vertex 12.1521 2.62049 1.5
    endloop
  endfacet
  facet normal 0 0 1
    outer loop
      vertex 12.3171 4.75197 1.5
      vertex 13.0581 5.163 1.5
      vertex 12.6149 5.06023 1.5
    endloop
  endfacet
  facet normal 0 -0 1
    outer loop
      vertex 13.0461 1.65598 1.5
      vertex 13.7631 2.08499 1.5
      vertex 12.3231 2.07598 1.5
    endloop
  endfacet
  facet normal 0 0 1
    outer loop
      vertex 13.7751 4.74597 1.5
      vertex 12.3171 4.75197 1.5
      vertex 12.1507 4.21199 1.5
    endloop
  endfacet
  facet normal 0 0 1
    outer loop
      vertex 13.7631 2.08499 1.5
      vertex 13.0461 1.65598 1.5
      vertex 13.4699 1.76323 1.5
    endloop
  endfacet
  facet normal 0 0 1
    outer loop
      vertex 13.9394 4.20448 1.5
      vertex 12.1507 4.21199 1.5
      vertex 12.0951 3.40798 1.5
    endloop
  endfacet
  facet normal 0 0 1
    outer loop
      vertex 13.0461 1.65598 1.5
      vertex 12.3231 2.07598 1.5
      vertex 12.6179 1.76099 1.5
    endloop
  endfacet
  facet normal 0 0 1
    outer loop
      vertex 15.4877 3.40798 1.5
      vertex 17.3867 3.40798 1.5
      vertex 17.3319 4.20448 1.5
    endloop
  endfacet
  facet normal -0 0 1
    outer loop
      vertex 15.5432 4.21199 1.5
      vertex 17.3319 4.20448 1.5
      vertex 17.1677 4.74597 1.5
    endloop
  endfacet
  facet normal 0 0 1
    outer loop
      vertex 17.3867 3.40798 1.5
      vertex 15.4877 3.40798 1.5
      vertex 17.329 2.63175 1.5
    endloop
  endfacet
  facet normal 0 0 1
    outer loop
      vertex 16.4507 5.163 1.5
      vertex 17.1677 4.74597 1.5
      vertex 16.8804 5.05872 1.5
    endloop
  endfacet
  facet normal 0 -0 1
    outer loop
      vertex 15.5447 2.62049 1.5
      vertex 17.329 2.63175 1.5
      vertex 15.4877 3.40798 1.5
    endloop
  endfacet
  facet normal 0 0 1
    outer loop
      vertex 17.1677 4.74597 1.5
      vertex 16.4507 5.163 1.5
      vertex 15.7097 4.75197 1.5
    endloop
  endfacet
  facet normal 0 0 1
    outer loop
      vertex 17.329 2.63175 1.5
      vertex 15.5447 2.62049 1.5
      vertex 17.1557 2.08499 1.5
    endloop
  endfacet
  facet normal 0 -0 1
    outer loop
      vertex 15.7157 2.07598 1.5
      vertex 17.1557 2.08499 1.5
      vertex 15.5447 2.62049 1.5
    endloop
  endfacet
  facet normal 0 0 1
    outer loop
      vertex 15.7097 4.75197 1.5
      vertex 16.4507 5.163 1.5
      vertex 16.0074 5.06023 1.5
    endloop
  endfacet
  facet normal 0 -0 1
    outer loop
      vertex 16.4387 1.65598 1.5
      vertex 17.1557 2.08499 1.5
      vertex 15.7157 2.07598 1.5
    endloop
  endfacet
  facet normal 0 0 1
    outer loop
      vertex 17.1677 4.74597 1.5
      vertex 15.7097 4.75197 1.5
      vertex 15.5432 4.21199 1.5
    endloop
  endfacet
  facet normal 0 0 1
    outer loop
      vertex 17.1557 2.08499 1.5
      vertex 16.4387 1.65598 1.5
      vertex 16.8625 1.76323 1.5
    endloop
  endfacet
  facet normal 0 0 1
    outer loop
      vertex 17.3319 4.20448 1.5
      vertex 15.5432 4.21199 1.5
      vertex 15.4877 3.40798 1.5
    endloop
  endfacet
  facet normal 0 0 1
    outer loop
      vertex 16.4387 1.65598 1.5
      vertex 15.7157 2.07598 1.5
      vertex 16.0105 1.76099 1.5
    endloop
  endfacet
  facet normal 0 0 1
    outer loop
      vertex 36 6 1.5
      vertex 23.3165 1.67397 1.5
      vertex 36 0 1.5
    endloop
  endfacet
  facet normal 0 0 1
    outer loop
      vertex 36 6 1.5
      vertex 22.2575 5.61595 1.5
      vertex 23.3165 1.67397 1.5
    endloop
  endfacet
  facet normal 0 0 1
    outer loop
      vertex 36 6 1.5
      vertex 21.7445 5.61595 1.5
      vertex 22.2575 5.61595 1.5
    endloop
  endfacet
  facet normal 0 0 1
    outer loop
      vertex 17.8622 4.36649 1.5
      vertex 20.7125 4.46399 1.5
      vertex 20.7125 4.98895 1.5
    endloop
  endfacet
  facet normal -0 0 1
    outer loop
      vertex 19.8973 2.62497 1.5
      vertex 20.5865 1.67397 1.5
      vertex 19.8973 3.12 1.5
    endloop
  endfacet
  facet normal 0 0 1
    outer loop
      vertex 20.7125 4.46399 1.5
      vertex 19.8973 3.12 1.5
      vertex 20.5865 1.67397 1.5
    endloop
  endfacet
  facet normal 0 0 1
    outer loop
      vertex 20.7125 4.46399 1.5
      vertex 17.8622 4.36649 1.5
      vertex 19.8973 3.12 1.5
    endloop
  endfacet
  facet normal 0 0 1
    outer loop
      vertex 17.8569 2.46073 1.5
      vertex 18.3523 3.12 1.5
      vertex 17.9537 3.40798 1.5
    endloop
  endfacet
  facet normal 0 0 1
    outer loop
      vertex 19.8973 3.12 1.5
      vertex 17.8622 4.36649 1.5
      vertex 18.3523 3.12 1.5
    endloop
  endfacet
  facet normal -0 0 1
    outer loop
      vertex 17.1205 5.47647 1.5
      vertex 20.7125 4.98895 1.5
      vertex 21.7445 5.61595 1.5
    endloop
  endfacet
  facet normal 0 0 1
    outer loop
      vertex 18.3523 3.12 1.5
      vertex 17.8622 4.36649 1.5
      vertex 17.9537 3.40798 1.5
    endloop
  endfacet
  facet normal 0 0 1
    outer loop
      vertex 20.7125 4.98895 1.5
      vertex 17.5877 5.05799 1.5
      vertex 17.8622 4.36649 1.5
    endloop
  endfacet
  facet normal 0 0 1
    outer loop
      vertex 20.7125 4.98895 1.5
      vertex 17.1205 5.47647 1.5
      vertex 17.5877 5.05799 1.5
    endloop
  endfacet
  facet normal 0 0 1
    outer loop
      vertex 21.7445 5.61595 1.5
      vertex 16.4507 5.61595 1.5
      vertex 17.1205 5.47647 1.5
    endloop
  endfacet
  facet normal 0 0 1
    outer loop
      vertex 36 6 1.5
      vertex 16.4507 5.61595 1.5
      vertex 21.7445 5.61595 1.5
    endloop
  endfacet
  facet normal -0 0 1
    outer loop
      vertex 14.4696 4.36649 1.5
      vertex 14.9267 3.40798 1.5
      vertex 15.0182 4.37546 1.5
    endloop
  endfacet
  facet normal -0 0 1
    outer loop
      vertex 14.1951 5.05799 1.5
      vertex 15.0182 4.37546 1.5
      vertex 15.2927 5.06398 1.5
    endloop
  endfacet
  facet normal 0 0 1
    outer loop
      vertex 14.9267 3.40798 1.5
      vertex 14.4696 4.36649 1.5
      vertex 14.5611 3.40798 1.5
    endloop
  endfacet
  facet normal -0 0 1
    outer loop
      vertex 13.7279 5.47647 1.5
      vertex 15.2927 5.06398 1.5
      vertex 15.7652 5.47798 1.5
    endloop
  endfacet
  facet normal 0 0 1
    outer loop
      vertex 15.0182 4.37546 1.5
      vertex 14.1951 5.05799 1.5
      vertex 14.4696 4.36649 1.5
    endloop
  endfacet
  facet normal 0 0 1
    outer loop
      vertex 15.2927 5.06398 1.5
      vertex 13.7279 5.47647 1.5
      vertex 14.1951 5.05799 1.5
    endloop
  endfacet
  facet normal 0 0 1
    outer loop
      vertex 16.4507 5.61595 1.5
      vertex 13.7279 5.47647 1.5
      vertex 15.7652 5.47798 1.5
    endloop
  endfacet
  facet normal 0 0 1
    outer loop
      vertex 16.4507 5.61595 1.5
      vertex 13.0581 5.61595 1.5
      vertex 13.7279 5.47647 1.5
    endloop
  endfacet
  facet normal 0 0 1
    outer loop
      vertex 36 6 1.5
      vertex 13.0581 5.61595 1.5
      vertex 16.4507 5.61595 1.5
    endloop
  endfacet
  facet normal 0 0 1
    outer loop
      vertex 10.0465 5.61595 1.5
      vertex 11.5341 3.40798 1.5
      vertex 11.6256 4.37546 1.5
    endloop
  endfacet
  facet normal 0 0 1
    outer loop
      vertex 11.5341 3.40798 1.5
      vertex 10.0465 5.61595 1.5
      vertex 10.0465 1.67397 1.5
    endloop
  endfacet
  facet normal 0 0 1
    outer loop
      vertex 11.9001 5.06398 1.5
      vertex 10.0465 5.61595 1.5
      vertex 11.6256 4.37546 1.5
    endloop
  endfacet
  facet normal 0 0 1
    outer loop
      vertex 12.3726 5.47798 1.5
      vertex 10.0465 5.61595 1.5
      vertex 11.9001 5.06398 1.5
    endloop
  endfacet
  facet normal 0 0 1
    outer loop
      vertex 13.0581 5.61595 1.5
      vertex 10.0465 5.61595 1.5
      vertex 12.3726 5.47798 1.5
    endloop
  endfacet
  facet normal -0 0 1
    outer loop
      vertex 0 6 1.5
      vertex 13.0581 5.61595 1.5
      vertex 36 6 1.5
    endloop
  endfacet
  facet normal 0 0 1
    outer loop
      vertex 13.0581 5.61595 1.5
      vertex 0 6 1.5
      vertex 10.0465 5.61595 1.5
    endloop
  endfacet
  facet normal 0 0 1
    outer loop
      vertex 7.68448 4.36649 1.5
      vertex 8.50154 4.46399 1.5
      vertex 8.50154 4.98895 1.5
    endloop
  endfacet
  facet normal -0 0 1
    outer loop
      vertex 7.67921 2.46073 1.5
      vertex 8.37556 1.67397 1.5
      vertex 7.77599 3.40798 1.5
    endloop
  endfacet
  facet normal 0 0 1
    outer loop
      vertex 8.50154 4.46399 1.5
      vertex 7.77599 3.40798 1.5
      vertex 8.37556 1.67397 1.5
    endloop
  endfacet
  facet normal 0 0 1
    outer loop
      vertex 8.50154 4.46399 1.5
      vertex 7.68448 4.36649 1.5
      vertex 7.77599 3.40798 1.5
    endloop
  endfacet
  facet normal 0 0 1
    outer loop
      vertex 8.50154 4.98895 1.5
      vertex 7.40996 5.05799 1.5
      vertex 7.68448 4.36649 1.5
    endloop
  endfacet
  facet normal -0 0 1
    outer loop
      vertex 6.94272 5.47647 1.5
      vertex 8.50154 4.98895 1.5
      vertex 9.53357 5.61595 1.5
    endloop
  endfacet
  facet normal 0 0 1
    outer loop
      vertex 8.50154 4.98895 1.5
      vertex 6.94272 5.47647 1.5
      vertex 7.40996 5.05799 1.5
    endloop
  endfacet
  facet normal 0 0 1
    outer loop
      vertex 9.53357 5.61595 1.5
      vertex 6.27296 5.61595 1.5
      vertex 6.94272 5.47647 1.5
    endloop
  endfacet
  facet normal 0 0 1
    outer loop
      vertex 10.0465 5.61595 1.5
      vertex 0 6 1.5
      vertex 9.53357 5.61595 1.5
    endloop
  endfacet
  facet normal 0 0 1
    outer loop
      vertex 4.84048 4.37546 1.5
      vertex 4.7119 3.55623 1.5
      vertex 4.74898 3.40798 1.5
    endloop
  endfacet
  facet normal 0 0 1
    outer loop
      vertex 4.84048 4.37546 1.5
      vertex 4.45623 4.05801 1.5
      vertex 4.7119 3.55623 1.5
    endloop
  endfacet
  facet normal -0 0 1
    outer loop
      vertex 4.05801 4.45623 1.5
      vertex 4.84048 4.37546 1.5
      vertex 5.11496 5.06398 1.5
    endloop
  endfacet
  facet normal 0 0 1
    outer loop
      vertex 4.84048 4.37546 1.5
      vertex 4.05801 4.45623 1.5
      vertex 4.45623 4.05801 1.5
    endloop
  endfacet
  facet normal 0 0 1
    outer loop
      vertex 3.55623 4.7119 1.5
      vertex 5.11496 5.06398 1.5
      vertex 5.58746 5.47798 1.5
    endloop
  endfacet
  facet normal 0 0 1
    outer loop
      vertex 5.11496 5.06398 1.5
      vertex 3.55623 4.7119 1.5
      vertex 4.05801 4.45623 1.5
    endloop
  endfacet
  facet normal 0 0 1
    outer loop
      vertex 5.58746 5.47798 1.5
      vertex 3 4.8 1.5
      vertex 3.55623 4.7119 1.5
    endloop
  endfacet
  facet normal 0 0 1
    outer loop
      vertex 0 6 1.5
      vertex 3 4.8 1.5
      vertex 5.58746 5.47798 1.5
    endloop
  endfacet
  facet normal 0 0 1
    outer loop
      vertex 1.2881 3.55623 1.5
      vertex 0 6 1.5
      vertex 1.2 3 1.5
    endloop
  endfacet
  facet normal 0 0 1
    outer loop
      vertex 1.54377 4.05801 1.5
      vertex 0 6 1.5
      vertex 1.2881 3.55623 1.5
    endloop
  endfacet
  facet normal 0 0 1
    outer loop
      vertex 1.94199 4.45623 1.5
      vertex 0 6 1.5
      vertex 1.54377 4.05801 1.5
    endloop
  endfacet
  facet normal 0 0 1
    outer loop
      vertex 2.44377 4.7119 1.5
      vertex 0 6 1.5
      vertex 1.94199 4.45623 1.5
    endloop
  endfacet
  facet normal 0 0 1
    outer loop
      vertex 3 4.8 1.5
      vertex 0 6 1.5
      vertex 2.44377 4.7119 1.5
    endloop
  endfacet
  facet normal 0 0 1
    outer loop
      vertex 6.27296 5.61595 1.5
      vertex 0 6 1.5
      vertex 5.58746 5.47798 1.5
    endloop
  endfacet
  facet normal 0 0 1
    outer loop
      vertex 9.53357 5.61595 1.5
      vertex 0 6 1.5
      vertex 6.27296 5.61595 1.5
    endloop
  endfacet
  facet normal -0 0 1
    outer loop
      vertex 23.3165 1.2 1.5
      vertex 36 0 1.5
      vertex 23.3165 1.67397 1.5
    endloop
  endfacet
  facet normal -0 0 1
    outer loop
      vertex 20.5865 1.2 1.5
      vertex 36 0 1.5
      vertex 23.3165 1.2 1.5
    endloop
  endfacet
  facet normal 0 0 1
    outer loop
      vertex 20.5865 1.67397 1.5
      vertex 19.8973 2.62497 1.5
      vertex 20.5865 1.2 1.5
    endloop
  endfacet
  facet normal -0 0 1
    outer loop
      vertex 18.3523 2.62497 1.5
      vertex 20.5865 1.2 1.5
      vertex 19.8973 2.62497 1.5
    endloop
  endfacet
  facet normal 0 0 1
    outer loop
      vertex 18.3523 3.12 1.5
      vertex 17.8569 2.46073 1.5
      vertex 18.3523 2.62497 1.5
    endloop
  endfacet
  facet normal 0 0 1
    outer loop
      vertex 17.5667 1.76698 1.5
      vertex 18.3523 2.62497 1.5
      vertex 17.8569 2.46073 1.5
    endloop
  endfacet
  facet normal 0 0 1
    outer loop
      vertex 18.3523 2.62497 1.5
      vertex 17.5667 1.76698 1.5
      vertex 20.5865 1.2 1.5
    endloop
  endfacet
  facet normal -0 0 1
    outer loop
      vertex 17.0912 1.34172 1.5
      vertex 20.5865 1.2 1.5
      vertex 17.5667 1.76698 1.5
    endloop
  endfacet
  facet normal 0 0 1
    outer loop
      vertex 16.4327 1.2 1.5
      vertex 20.5865 1.2 1.5
      vertex 17.0912 1.34172 1.5
    endloop
  endfacet
  facet normal 0 0 1
    outer loop
      vertex 20.5865 1.2 1.5
      vertex 16.4327 1.2 1.5
      vertex 36 0 1.5
    endloop
  endfacet
  facet normal -0 0 1
    outer loop
      vertex 14.5611 3.40798 1.5
      vertex 15.0205 2.45697 1.5
      vertex 14.9267 3.40798 1.5
    endloop
  endfacet
  facet normal -0 0 1
    outer loop
      vertex 14.4644 2.46073 1.5
      vertex 15.0205 2.45697 1.5
      vertex 14.5611 3.40798 1.5
    endloop
  endfacet
  facet normal 0 0 1
    outer loop
      vertex 15.0205 2.45697 1.5
      vertex 14.4644 2.46073 1.5
      vertex 15.3017 1.76396 1.5
    endloop
  endfacet
  facet normal -0 0 1
    outer loop
      vertex 14.1741 1.76698 1.5
      vertex 15.3017 1.76396 1.5
      vertex 14.4644 2.46073 1.5
    endloop
  endfacet
  facet normal 0 0 1
    outer loop
      vertex 15.3017 1.76396 1.5
      vertex 14.1741 1.76698 1.5
      vertex 15.7735 1.34099 1.5
    endloop
  endfacet
  facet normal -0 0 1
    outer loop
      vertex 13.6986 1.34172 1.5
      vertex 15.7735 1.34099 1.5
      vertex 14.1741 1.76698 1.5
    endloop
  endfacet
  facet normal 0 0 1
    outer loop
      vertex 13.6986 1.34172 1.5
      vertex 16.4327 1.2 1.5
      vertex 15.7735 1.34099 1.5
    endloop
  endfacet
  facet normal 0 0 1
    outer loop
      vertex 13.0401 1.2 1.5
      vertex 16.4327 1.2 1.5
      vertex 13.6986 1.34172 1.5
    endloop
  endfacet
  facet normal 0 0 1
    outer loop
      vertex 0 0 1.5
      vertex 16.4327 1.2 1.5
      vertex 13.0401 1.2 1.5
    endloop
  endfacet
  facet normal 0 0 1
    outer loop
      vertex 11.1056 1.67397 1.5
      vertex 11.6279 2.45697 1.5
      vertex 11.5341 3.40798 1.5
    endloop
  endfacet
  facet normal 0 0 1
    outer loop
      vertex 11.1056 1.67397 1.5
      vertex 11.9091 1.76396 1.5
      vertex 11.6279 2.45697 1.5
    endloop
  endfacet
  facet normal 0 0 1
    outer loop
      vertex 11.1056 1.2 1.5
      vertex 11.9091 1.76396 1.5
      vertex 11.1056 1.67397 1.5
    endloop
  endfacet
  facet normal 0 0 1
    outer loop
      vertex 11.9091 1.76396 1.5
      vertex 11.1056 1.2 1.5
      vertex 12.3809 1.34099 1.5
    endloop
  endfacet
  facet normal 0 0 1
    outer loop
      vertex 11.1056 1.2 1.5
      vertex 13.0401 1.2 1.5
      vertex 12.3809 1.34099 1.5
    endloop
  endfacet
  facet normal 0 0 1
    outer loop
      vertex 0 0 1.5
      vertex 13.0401 1.2 1.5
      vertex 11.1056 1.2 1.5
    endloop
  endfacet
  facet normal 0 0 1
    outer loop
      vertex 0 0 1.5
      vertex 11.1056 1.2 1.5
      vertex 8.37556 1.2 1.5
    endloop
  endfacet
  facet normal -0 0 1
    outer loop
      vertex 7.38899 1.76698 1.5
      vertex 8.37556 1.67397 1.5
      vertex 7.67921 2.46073 1.5
    endloop
  endfacet
  facet normal 0 0 1
    outer loop
      vertex 8.37556 1.67397 1.5
      vertex 7.38899 1.76698 1.5
      vertex 8.37556 1.2 1.5
    endloop
  endfacet
  facet normal -0 0 1
    outer loop
      vertex 6.91347 1.34172 1.5
      vertex 8.37556 1.2 1.5
      vertex 7.38899 1.76698 1.5
    endloop
  endfacet
  facet normal 0 0 1
    outer loop
      vertex 6.25497 1.2 1.5
      vertex 8.37556 1.2 1.5
      vertex 6.91347 1.34172 1.5
    endloop
  endfacet
  facet normal 0 0 1
    outer loop
      vertex 0 0 1.5
      vertex 8.37556 1.2 1.5
      vertex 6.25497 1.2 1.5
    endloop
  endfacet
  facet normal 0 0 1
    outer loop
      vertex 4.7119 2.44377 1.5
      vertex 4.84273 2.45697 1.5
      vertex 4.79334 2.95796 1.5
    endloop
  endfacet
  facet normal 0 0 1
    outer loop
      vertex 4.45623 1.94199 1.5
      vertex 4.84273 2.45697 1.5
      vertex 4.7119 2.44377 1.5
    endloop
  endfacet
  facet normal 0 0 1
    outer loop
      vertex 4.84273 2.45697 1.5
      vertex 4.45623 1.94199 1.5
      vertex 5.12398 1.76396 1.5
    endloop
  endfacet
  facet normal 0 0 1
    outer loop
      vertex 4.05801 1.54377 1.5
      vertex 5.12398 1.76396 1.5
      vertex 4.45623 1.94199 1.5
    endloop
  endfacet
  facet normal 0 0 1
    outer loop
      vertex 5.12398 1.76396 1.5
      vertex 4.05801 1.54377 1.5
      vertex 5.59575 1.34099 1.5
    endloop
  endfacet
  facet normal 0 0 1
    outer loop
      vertex 3.55623 1.2881 1.5
      vertex 5.59575 1.34099 1.5
      vertex 4.05801 1.54377 1.5
    endloop
  endfacet
  facet normal 0 0 1
    outer loop
      vertex 5.59575 1.34099 1.5
      vertex 3.55623 1.2881 1.5
      vertex 6.25497 1.2 1.5
    endloop
  endfacet
  facet normal 0 0 1
    outer loop
      vertex 0 0 1.5
      vertex 6.25497 1.2 1.5
      vertex 3.55623 1.2881 1.5
    endloop
  endfacet
  facet normal 0 0 1
    outer loop
      vertex 0 0 1.5
      vertex 3.55623 1.2881 1.5
      vertex 3 1.2 1.5
    endloop
  endfacet
  facet normal 0 0 1
    outer loop
      vertex 0 0 1.5
      vertex 1.2 3 1.5
      vertex 0 6 1.5
    endloop
  endfacet
  facet normal 0 0 1
    outer loop
      vertex 16.4327 1.2 1.5
      vertex 0 0 1.5
      vertex 36 0 1.5
    endloop
  endfacet
  facet normal 0 0 1
    outer loop
      vertex 2.44377 1.2881 1.5
      vertex 0 0 1.5
      vertex 3 1.2 1.5
    endloop
  endfacet
  facet normal 0 0 1
    outer loop
      vertex 1.94199 1.54377 1.5
      vertex 0 0 1.5
      vertex 2.44377 1.2881 1.5
    endloop
  endfacet
  facet normal 0 0 1
    outer loop
      vertex 1.54377 1.94199 1.5
      vertex 0 0 1.5
      vertex 1.94199 1.54377 1.5
    endloop
  endfacet
  facet normal 0 0 1
    outer loop
      vertex 1.2881 2.44377 1.5
      vertex 0 0 1.5
      vertex 1.54377 1.94199 1.5
    endloop
  endfacet
  facet normal 0 0 1
    outer loop
      vertex 1.2 3 1.5
      vertex 0 0 1.5
      vertex 1.2881 2.44377 1.5
    endloop
  endfacet
  facet normal 0 0 1
    outer loop
      vertex 23.3165 1.67397 1.5
      vertex 22.2575 5.61595 1.5
      vertex 22.2575 1.67397 1.5
    endloop
  endfacet
  facet normal -0 0 1
    outer loop
      vertex 20.7125 4.46399 1.5
      vertex 21.6965 1.67397 1.5
      vertex 21.6965 5.08499 1.5
    endloop
  endfacet
  facet normal 0 0 1
    outer loop
      vertex 21.6965 1.67397 1.5
      vertex 20.7125 4.46399 1.5
      vertex 20.5865 1.67397 1.5
    endloop
  endfacet
  facet normal 0 0 1
    outer loop
      vertex 11.5341 3.40798 1.5
      vertex 10.0465 1.67397 1.5
      vertex 11.1056 1.67397 1.5
    endloop
  endfacet
  facet normal -0 0 1
    outer loop
      vertex 8.50154 4.46399 1.5
      vertex 9.48555 1.67397 1.5
      vertex 9.48555 5.08499 1.5
    endloop
  endfacet
  facet normal 0 0 1
    outer loop
      vertex 9.48555 1.67397 1.5
      vertex 8.50154 4.46399 1.5
      vertex 8.37556 1.67397 1.5
    endloop
  endfacet
  facet normal 0 0 1
    outer loop
      vertex 4.77139 3.18063 1.5
      vertex 4.74898 3.40798 1.5
      vertex 4.7119 3.55623 1.5
    endloop
  endfacet
  facet normal 0 0 -1
    outer loop
      vertex 36 0 0
      vertex 4.8 3 0
      vertex 36 6 0
    endloop
  endfacet
  facet normal 0 0 -1
    outer loop
      vertex 36 0 0
      vertex 4.7119 2.44377 0
      vertex 4.8 3 0
    endloop
  endfacet
  facet normal 0 0 -1
    outer loop
      vertex 36 0 0
      vertex 4.45623 1.94199 0
      vertex 4.7119 2.44377 0
    endloop
  endfacet
  facet normal 0 0 -1
    outer loop
      vertex 36 0 0
      vertex 4.05801 1.54377 0
      vertex 4.45623 1.94199 0
    endloop
  endfacet
  facet normal 0 0 -1
    outer loop
      vertex 36 0 0
      vertex 3.55623 1.2881 0
      vertex 4.05801 1.54377 0
    endloop
  endfacet
  facet normal 0 0 -1
    outer loop
      vertex 0 0 0
      vertex 3.55623 1.2881 0
      vertex 36 0 0
    endloop
  endfacet
  facet normal -0 0 -1
    outer loop
      vertex 1.2881 2.44377 0
      vertex 0 0 0
      vertex 1.2 3 0
    endloop
  endfacet
  facet normal -0 0 -1
    outer loop
      vertex 1.54377 1.94199 0
      vertex 0 0 0
      vertex 1.2881 2.44377 0
    endloop
  endfacet
  facet normal -0 0 -1
    outer loop
      vertex 1.94199 1.54377 0
      vertex 0 0 0
      vertex 1.54377 1.94199 0
    endloop
  endfacet
  facet normal -0 0 -1
    outer loop
      vertex 2.44377 1.2881 0
      vertex 0 0 0
      vertex 1.94199 1.54377 0
    endloop
  endfacet
  facet normal -0 0 -1
    outer loop
      vertex 3 1.2 0
      vertex 0 0 0
      vertex 2.44377 1.2881 0
    endloop
  endfacet
  facet normal 0 0 -1
    outer loop
      vertex 3.55623 1.2881 0
      vertex 0 0 0
      vertex 3 1.2 0
    endloop
  endfacet
  facet normal 0 0 -1
    outer loop
      vertex 4.7119 3.55623 0
      vertex 36 6 0
      vertex 4.8 3 0
    endloop
  endfacet
  facet normal 0 0 -1
    outer loop
      vertex 4.45623 4.05801 0
      vertex 36 6 0
      vertex 4.7119 3.55623 0
    endloop
  endfacet
  facet normal 0 0 -1
    outer loop
      vertex 4.05801 4.45623 0
      vertex 36 6 0
      vertex 4.45623 4.05801 0
    endloop
  endfacet
  facet normal 0 0 -1
    outer loop
      vertex 3.55623 4.7119 0
      vertex 36 6 0
      vertex 4.05801 4.45623 0
    endloop
  endfacet
  facet normal 0 0 -1
    outer loop
      vertex 0 6 0
      vertex 3.55623 4.7119 0
      vertex 3 4.8 0
    endloop
  endfacet
  facet normal 0 0 -1
    outer loop
      vertex 0 6 0
      vertex 1.2 3 0
      vertex 0 0 0
    endloop
  endfacet
  facet normal 0 0 -1
    outer loop
      vertex 3.55623 4.7119 0
      vertex 0 6 0
      vertex 36 6 0
    endloop
  endfacet
  facet normal 0 0 -1
    outer loop
      vertex 2.44377 4.7119 0
      vertex 0 6 0
      vertex 3 4.8 0
    endloop
  endfacet
  facet normal 0 0 -1
    outer loop
      vertex 1.94199 4.45623 0
      vertex 0 6 0
      vertex 2.44377 4.7119 0
    endloop
  endfacet
  facet normal 0 0 -1
    outer loop
      vertex 1.54377 4.05801 0
      vertex 0 6 0
      vertex 1.94199 4.45623 0
    endloop
  endfacet
  facet normal 0 0 -1
    outer loop
      vertex 1.2881 3.55623 0
      vertex 0 6 0
      vertex 1.54377 4.05801 0
    endloop
  endfacet
  facet normal 0 0 -1
    outer loop
      vertex 1.2 3 0
      vertex 0 6 0
      vertex 1.2881 3.55623 0
    endloop
  endfacet
  facet normal -1 0 0
    outer loop
      vertex 0 0 0
      vertex 0 6 1.5
      vertex 0 6 0
    endloop
  endfacet
  facet normal -1 -0 0
    outer loop
      vertex 0 6 1.5
      vertex 0 0 0
      vertex 0 0 1.5
    endloop
  endfacet
  facet normal 0 1 -0
    outer loop
      vertex 36 6 0
      vertex 0 6 1.5
      vertex 36 6 1.5
    endloop
  endfacet
  facet normal 0 1 0
    outer loop
      vertex 0 6 1.5
      vertex 36 6 0
      vertex 0 6 0
    endloop
  endfacet
  facet normal 0 -1 0
    outer loop
      vertex 0 0 0
      vertex 36 0 1.5
      vertex 0 0 1.5
    endloop
  endfacet
  facet normal 0 -1 -0
    outer loop
      vertex 36 0 1.5
      vertex 0 0 0
      vertex 36 0 0
    endloop
  endfacet
  facet normal 0 0 1
    outer loop
      vertex 5.30997 3.40798 3.3
      vertex 4.77139 3.18063 3.3
      vertex 4.8 3 3.3
    endloop
  endfacet
  facet normal 0 0 1
    outer loop
      vertex 5.30997 3.40798 3.3
      vertex 4.74898 3.40798 3.3
      vertex 4.77139 3.18063 3.3
    endloop
  endfacet
  facet normal -0 0 1
    outer loop
      vertex 7.15421 4.20448 3.3
      vertex 7.77599 3.40798 3.3
      vertex 7.68448 4.36649 3.3
    endloop
  endfacet
  facet normal -0 0 1
    outer loop
      vertex 6.98996 4.74597 3.3
      vertex 7.68448 4.36649 3.3
      vertex 7.40996 5.05799 3.3
    endloop
  endfacet
  facet normal 0 0 1
    outer loop
      vertex 7.15123 2.63175 3.3
      vertex 7.77599 3.40798 3.3
      vertex 7.209 3.40798 3.3
    endloop
  endfacet
  facet normal 0 0 1
    outer loop
      vertex 7.77599 3.40798 3.3
      vertex 7.15123 2.63175 3.3
      vertex 7.67921 2.46073 3.3
    endloop
  endfacet
  facet normal 0 0 1
    outer loop
      vertex 7.77599 3.40798 3.3
      vertex 7.15421 4.20448 3.3
      vertex 7.209 3.40798 3.3
    endloop
  endfacet
  facet normal 0 0 1
    outer loop
      vertex 7.68448 4.36649 3.3
      vertex 6.98996 4.74597 3.3
      vertex 7.15421 4.20448 3.3
    endloop
  endfacet
  facet normal -0 0 1
    outer loop
      vertex 6.70271 5.05872 3.3
      vertex 7.40996 5.05799 3.3
      vertex 6.94272 5.47647 3.3
    endloop
  endfacet
  facet normal 0 0 1
    outer loop
      vertex 7.40996 5.05799 3.3
      vertex 6.70271 5.05872 3.3
      vertex 6.98996 4.74597 3.3
    endloop
  endfacet
  facet normal 0 0 1
    outer loop
      vertex 6.27296 5.61595 3.3
      vertex 6.70271 5.05872 3.3
      vertex 6.94272 5.47647 3.3
    endloop
  endfacet
  facet normal 0 0 1
    outer loop
      vertex 6.27296 5.61595 3.3
      vertex 6.27296 5.163 3.3
      vertex 6.70271 5.05872 3.3
    endloop
  endfacet
  facet normal 0 0 1
    outer loop
      vertex 6.27296 5.61595 3.3
      vertex 5.82971 5.06023 3.3
      vertex 6.27296 5.163 3.3
    endloop
  endfacet
  facet normal -0 0 1
    outer loop
      vertex 5.58746 5.47798 3.3
      vertex 5.82971 5.06023 3.3
      vertex 6.27296 5.61595 3.3
    endloop
  endfacet
  facet normal -0 0 1
    outer loop
      vertex 5.11496 5.06398 3.3
      vertex 5.82971 5.06023 3.3
      vertex 5.58746 5.47798 3.3
    endloop
  endfacet
  facet normal 0 0 1
    outer loop
      vertex 5.82971 5.06023 3.3
      vertex 5.11496 5.06398 3.3
      vertex 5.53198 4.75197 3.3
    endloop
  endfacet
  facet normal 0 0 1
    outer loop
      vertex 4.74898 3.40798 3.3
      vertex 5.36549 4.21199 3.3
      vertex 4.84048 4.37546 3.3
    endloop
  endfacet
  facet normal 0 0 1
    outer loop
      vertex 4.84048 4.37546 3.3
      vertex 5.53198 4.75197 3.3
      vertex 5.11496 5.06398 3.3
    endloop
  endfacet
  facet normal 0 0 1
    outer loop
      vertex 5.53198 4.75197 3.3
      vertex 4.84048 4.37546 3.3
      vertex 5.36549 4.21199 3.3
    endloop
  endfacet
  facet normal 0 0 1
    outer loop
      vertex 4.79334 2.95796 3.3
      vertex 5.30997 3.40798 3.3
      vertex 4.8 3 3.3
    endloop
  endfacet
  facet normal 0 0 1
    outer loop
      vertex 5.36549 4.21199 3.3
      vertex 4.74898 3.40798 3.3
      vertex 5.30997 3.40798 3.3
    endloop
  endfacet
  facet normal 0 0 1
    outer loop
      vertex 5.30997 3.40798 3.3
      vertex 4.84273 2.45697 3.3
      vertex 5.12398 1.76396 3.3
    endloop
  endfacet
  facet normal 0 0 1
    outer loop
      vertex 5.30997 3.40798 3.3
      vertex 4.79334 2.95796 3.3
      vertex 4.84273 2.45697 3.3
    endloop
  endfacet
  facet normal 0 0 1
    outer loop
      vertex 6.97797 2.08499 3.3
      vertex 7.67921 2.46073 3.3
      vertex 7.15123 2.63175 3.3
    endloop
  endfacet
  facet normal 0 0 1
    outer loop
      vertex 7.67921 2.46073 3.3
      vertex 6.97797 2.08499 3.3
      vertex 7.38899 1.76698 3.3
    endloop
  endfacet
  facet normal 0 0 1
    outer loop
      vertex 6.68472 1.76323 3.3
      vertex 7.38899 1.76698 3.3
      vertex 6.97797 2.08499 3.3
    endloop
  endfacet
  facet normal 0 0 1
    outer loop
      vertex 7.38899 1.76698 3.3
      vertex 6.68472 1.76323 3.3
      vertex 6.91347 1.34172 3.3
    endloop
  endfacet
  facet normal 0 0 1
    outer loop
      vertex 6.25497 1.2 3.3
      vertex 6.68472 1.76323 3.3
      vertex 6.26097 1.65598 3.3
    endloop
  endfacet
  facet normal 0 0 1
    outer loop
      vertex 6.68472 1.76323 3.3
      vertex 6.25497 1.2 3.3
      vertex 6.91347 1.34172 3.3
    endloop
  endfacet
  facet normal 0 0 1
    outer loop
      vertex 5.83273 1.76099 3.3
      vertex 6.25497 1.2 3.3
      vertex 6.26097 1.65598 3.3
    endloop
  endfacet
  facet normal 0 0 1
    outer loop
      vertex 5.83273 1.76099 3.3
      vertex 5.59575 1.34099 3.3
      vertex 6.25497 1.2 3.3
    endloop
  endfacet
  facet normal -0 0 1
    outer loop
      vertex 5.12398 1.76396 3.3
      vertex 5.83273 1.76099 3.3
      vertex 5.53798 2.07598 3.3
    endloop
  endfacet
  facet normal 0 0 1
    outer loop
      vertex 5.12398 1.76396 3.3
      vertex 5.53798 2.07598 3.3
      vertex 5.36696 2.62049 3.3
    endloop
  endfacet
  facet normal 0 0 1
    outer loop
      vertex 5.83273 1.76099 3.3
      vertex 5.12398 1.76396 3.3
      vertex 5.59575 1.34099 3.3
    endloop
  endfacet
  facet normal 0 0 1
    outer loop
      vertex 5.12398 1.76396 3.3
      vertex 5.36696 2.62049 3.3
      vertex 5.30997 3.40798 3.3
    endloop
  endfacet
  facet normal 0 0 1
    outer loop
      vertex 9.48555 5.08499 3.3
      vertex 10.0465 5.61595 3.3
      vertex 9.53357 5.61595 3.3
    endloop
  endfacet
  facet normal -0 0 1
    outer loop
      vertex 10.0465 1.67397 3.3
      vertex 11.1056 1.2 3.3
      vertex 11.1056 1.67397 3.3
    endloop
  endfacet
  facet normal 0 0 1
    outer loop
      vertex 10.0465 5.61595 3.3
      vertex 9.48555 5.08499 3.3
      vertex 10.0465 1.67397 3.3
    endloop
  endfacet
  facet normal 0 0 1
    outer loop
      vertex 9.48555 1.67397 3.3
      vertex 10.0465 1.67397 3.3
      vertex 9.48555 5.08499 3.3
    endloop
  endfacet
  facet normal -0 0 1
    outer loop
      vertex 9.48555 1.67397 3.3
      vertex 11.1056 1.2 3.3
      vertex 10.0465 1.67397 3.3
    endloop
  endfacet
  facet normal 0 0 1
    outer loop
      vertex 8.37556 1.2 3.3
      vertex 9.48555 1.67397 3.3
      vertex 8.37556 1.67397 3.3
    endloop
  endfacet
  facet normal 0 0 1
    outer loop
      vertex 9.48555 1.67397 3.3
      vertex 8.37556 1.2 3.3
      vertex 11.1056 1.2 3.3
    endloop
  endfacet
  facet normal 0 0 1
    outer loop
      vertex 8.50154 4.98895 3.3
      vertex 9.48555 5.08499 3.3
      vertex 9.53357 5.61595 3.3
    endloop
  endfacet
  facet normal 0 0 1
    outer loop
      vertex 9.48555 5.08499 3.3
      vertex 8.50154 4.98895 3.3
      vertex 8.50154 4.46399 3.3
    endloop
  endfacet
  facet normal -0 0 1
    outer loop
      vertex 13.9394 4.20448 3.3
      vertex 14.5611 3.40798 3.3
      vertex 14.4696 4.36649 3.3
    endloop
  endfacet
  facet normal -0 0 1
    outer loop
      vertex 13.7751 4.74597 3.3
      vertex 14.4696 4.36649 3.3
      vertex 14.1951 5.05799 3.3
    endloop
  endfacet
  facet normal 0 0 1
    outer loop
      vertex 13.9364 2.63175 3.3
      vertex 14.5611 3.40798 3.3
      vertex 13.9942 3.40798 3.3
    endloop
  endfacet
  facet normal 0 0 1
    outer loop
      vertex 14.5611 3.40798 3.3
      vertex 13.9364 2.63175 3.3
      vertex 14.4644 2.46073 3.3
    endloop
  endfacet
  facet normal 0 0 1
    outer loop
      vertex 14.5611 3.40798 3.3
      vertex 13.9394 4.20448 3.3
      vertex 13.9942 3.40798 3.3
    endloop
  endfacet
  facet normal 0 0 1
    outer loop
      vertex 14.4696 4.36649 3.3
      vertex 13.7751 4.74597 3.3
      vertex 13.9394 4.20448 3.3
    endloop
  endfacet
  facet normal -0 0 1
    outer loop
      vertex 13.4879 5.05872 3.3
      vertex 14.1951 5.05799 3.3
      vertex 13.7279 5.47647 3.3
    endloop
  endfacet
  facet normal 0 0 1
    outer loop
      vertex 14.1951 5.05799 3.3
      vertex 13.4879 5.05872 3.3
      vertex 13.7751 4.74597 3.3
    endloop
  endfacet
  facet normal 0 0 1
    outer loop
      vertex 13.0581 5.61595 3.3
      vertex 13.4879 5.05872 3.3
      vertex 13.7279 5.47647 3.3
    endloop
  endfacet
  facet normal 0 0 1
    outer loop
      vertex 13.0581 5.61595 3.3
      vertex 13.0581 5.163 3.3
      vertex 13.4879 5.05872 3.3
    endloop
  endfacet
  facet normal 0 0 1
    outer loop
      vertex 13.0581 5.61595 3.3
      vertex 12.6149 5.06023 3.3
      vertex 13.0581 5.163 3.3
    endloop
  endfacet
  facet normal -0 0 1
    outer loop
      vertex 12.3726 5.47798 3.3
      vertex 12.6149 5.06023 3.3
      vertex 13.0581 5.61595 3.3
    endloop
  endfacet
  facet normal -0 0 1
    outer loop
      vertex 11.9001 5.06398 3.3
      vertex 12.6149 5.06023 3.3
      vertex 12.3726 5.47798 3.3
    endloop
  endfacet
  facet normal 0 0 1
    outer loop
      vertex 12.6149 5.06023 3.3
      vertex 11.9001 5.06398 3.3
      vertex 12.3171 4.75197 3.3
    endloop
  endfacet
  facet normal 0 0 1
    outer loop
      vertex 11.5341 3.40798 3.3
      vertex 12.0951 3.40798 3.3
      vertex 12.1507 4.21199 3.3
    endloop
  endfacet
  facet normal 0 0 1
    outer loop
      vertex 11.6256 4.37546 3.3
      vertex 12.3171 4.75197 3.3
      vertex 11.9001 5.06398 3.3
    endloop
  endfacet
  facet normal 0 0 1
    outer loop
      vertex 12.3171 4.75197 3.3
      vertex 11.6256 4.37546 3.3
      vertex 12.1507 4.21199 3.3
    endloop
  endfacet
  facet normal 0 0 1
    outer loop
      vertex 12.0951 3.40798 3.3
      vertex 11.5341 3.40798 3.3
      vertex 11.6279 2.45697 3.3
    endloop
  endfacet
  facet normal 0 0 1
    outer loop
      vertex 12.1507 4.21199 3.3
      vertex 11.6256 4.37546 3.3
      vertex 11.5341 3.40798 3.3
    endloop
  endfacet
  facet normal 0 0 1
    outer loop
      vertex 12.0951 3.40798 3.3
      vertex 11.6279 2.45697 3.3
      vertex 11.9091 1.76396 3.3
    endloop
  endfacet
  facet normal 0 0 1
    outer loop
      vertex 13.7631 2.08499 3.3
      vertex 14.4644 2.46073 3.3
      vertex 13.9364 2.63175 3.3
    endloop
  endfacet
  facet normal 0 0 1
    outer loop
      vertex 14.4644 2.46073 3.3
      vertex 13.7631 2.08499 3.3
      vertex 14.1741 1.76698 3.3
    endloop
  endfacet
  facet normal 0 0 1
    outer loop
      vertex 13.4699 1.76323 3.3
      vertex 14.1741 1.76698 3.3
      vertex 13.7631 2.08499 3.3
    endloop
  endfacet
  facet normal 0 0 1
    outer loop
      vertex 14.1741 1.76698 3.3
      vertex 13.4699 1.76323 3.3
      vertex 13.6986 1.34172 3.3
    endloop
  endfacet
  facet normal 0 0 1
    outer loop
      vertex 13.0401 1.2 3.3
      vertex 13.4699 1.76323 3.3
      vertex 13.0461 1.65598 3.3
    endloop
  endfacet
  facet normal 0 0 1
    outer loop
      vertex 13.4699 1.76323 3.3
      vertex 13.0401 1.2 3.3
      vertex 13.6986 1.34172 3.3
    endloop
  endfacet
  facet normal 0 0 1
    outer loop
      vertex 12.6179 1.76099 3.3
      vertex 13.0401 1.2 3.3
      vertex 13.0461 1.65598 3.3
    endloop
  endfacet
  facet normal 0 0 1
    outer loop
      vertex 12.6179 1.76099 3.3
      vertex 12.3809 1.34099 3.3
      vertex 13.0401 1.2 3.3
    endloop
  endfacet
  facet normal -0 0 1
    outer loop
      vertex 11.9091 1.76396 3.3
      vertex 12.6179 1.76099 3.3
      vertex 12.3231 2.07598 3.3
    endloop
  endfacet
  facet normal 0 0 1
    outer loop
      vertex 11.9091 1.76396 3.3
      vertex 12.3231 2.07598 3.3
      vertex 12.1521 2.62049 3.3
    endloop
  endfacet
  facet normal 0 0 1
    outer loop
      vertex 12.6179 1.76099 3.3
      vertex 11.9091 1.76396 3.3
      vertex 12.3809 1.34099 3.3
    endloop
  endfacet
  facet normal 0 0 1
    outer loop
      vertex 11.9091 1.76396 3.3
      vertex 12.1521 2.62049 3.3
      vertex 12.0951 3.40798 3.3
    endloop
  endfacet
  facet normal 0 0 1
    outer loop
      vertex 21.6965 5.08499 3.3
      vertex 22.2575 5.61595 3.3
      vertex 21.7445 5.61595 3.3
    endloop
  endfacet
  facet normal -0 0 1
    outer loop
      vertex 22.2575 1.67397 3.3
      vertex 23.3165 1.2 3.3
      vertex 23.3165 1.67397 3.3
    endloop
  endfacet
  facet normal 0 0 1
    outer loop
      vertex 22.2575 5.61595 3.3
      vertex 21.6965 5.08499 3.3
      vertex 22.2575 1.67397 3.3
    endloop
  endfacet
  facet normal 0 0 1
    outer loop
      vertex 21.6965 1.67397 3.3
      vertex 22.2575 1.67397 3.3
      vertex 21.6965 5.08499 3.3
    endloop
  endfacet
  facet normal -0 0 1
    outer loop
      vertex 21.6965 1.67397 3.3
      vertex 23.3165 1.2 3.3
      vertex 22.2575 1.67397 3.3
    endloop
  endfacet
  facet normal 0 0 1
    outer loop
      vertex 20.5865 1.2 3.3
      vertex 21.6965 1.67397 3.3
      vertex 20.5865 1.67397 3.3
    endloop
  endfacet
  facet normal 0 0 1
    outer loop
      vertex 21.6965 1.67397 3.3
      vertex 20.5865 1.2 3.3
      vertex 23.3165 1.2 3.3
    endloop
  endfacet
  facet normal 0 0 1
    outer loop
      vertex 20.7125 4.98895 3.3
      vertex 21.6965 5.08499 3.3
      vertex 21.7445 5.61595 3.3
    endloop
  endfacet
  facet normal 0 0 1
    outer loop
      vertex 21.6965 5.08499 3.3
      vertex 20.7125 4.98895 3.3
      vertex 20.7125 4.46399 3.3
    endloop
  endfacet
  facet normal -0 0 1
    outer loop
      vertex 17.3319 4.20448 3.3
      vertex 17.9537 3.40798 3.3
      vertex 17.8622 4.36649 3.3
    endloop
  endfacet
  facet normal -0 0 1
    outer loop
      vertex 17.1677 4.74597 3.3
      vertex 17.8622 4.36649 3.3
      vertex 17.5877 5.05799 3.3
    endloop
  endfacet
  facet normal 0 0 1
    outer loop
      vertex 17.329 2.63175 3.3
      vertex 17.9537 3.40798 3.3
      vertex 17.3867 3.40798 3.3
    endloop
  endfacet
  facet normal 0 0 1
    outer loop
      vertex 17.9537 3.40798 3.3
      vertex 17.329 2.63175 3.3
      vertex 17.8569 2.46073 3.3
    endloop
  endfacet
  facet normal 0 0 1
    outer loop
      vertex 17.9537 3.40798 3.3
      vertex 17.3319 4.20448 3.3
      vertex 17.3867 3.40798 3.3
    endloop
  endfacet
  facet normal 0 0 1
    outer loop
      vertex 17.8622 4.36649 3.3
      vertex 17.1677 4.74597 3.3
      vertex 17.3319 4.20448 3.3
    endloop
  endfacet
  facet normal -0 0 1
    outer loop
      vertex 16.8804 5.05872 3.3
      vertex 17.5877 5.05799 3.3
      vertex 17.1205 5.47647 3.3
    endloop
  endfacet
  facet normal 0 0 1
    outer loop
      vertex 17.5877 5.05799 3.3
      vertex 16.8804 5.05872 3.3
      vertex 17.1677 4.74597 3.3
    endloop
  endfacet
  facet normal 0 0 1
    outer loop
      vertex 16.4507 5.61595 3.3
      vertex 16.8804 5.05872 3.3
      vertex 17.1205 5.47647 3.3
    endloop
  endfacet
  facet normal 0 0 1
    outer loop
      vertex 16.4507 5.61595 3.3
      vertex 16.4507 5.163 3.3
      vertex 16.8804 5.05872 3.3
    endloop
  endfacet
  facet normal 0 0 1
    outer loop
      vertex 16.4507 5.61595 3.3
      vertex 16.0074 5.06023 3.3
      vertex 16.4507 5.163 3.3
    endloop
  endfacet
  facet normal -0 0 1
    outer loop
      vertex 15.7652 5.47798 3.3
      vertex 16.0074 5.06023 3.3
      vertex 16.4507 5.61595 3.3
    endloop
  endfacet
  facet normal -0 0 1
    outer loop
      vertex 15.2927 5.06398 3.3
      vertex 16.0074 5.06023 3.3
      vertex 15.7652 5.47798 3.3
    endloop
  endfacet
  facet normal 0 0 1
    outer loop
      vertex 16.0074 5.06023 3.3
      vertex 15.2927 5.06398 3.3
      vertex 15.7097 4.75197 3.3
    endloop
  endfacet
  facet normal 0 0 1
    outer loop
      vertex 14.9267 3.40798 3.3
      vertex 15.4877 3.40798 3.3
      vertex 15.5432 4.21199 3.3
    endloop
  endfacet
  facet normal 0 0 1
    outer loop
      vertex 15.0182 4.37546 3.3
      vertex 15.7097 4.75197 3.3
      vertex 15.2927 5.06398 3.3
    endloop
  endfacet
  facet normal 0 0 1
    outer loop
      vertex 15.7097 4.75197 3.3
      vertex 15.0182 4.37546 3.3
      vertex 15.5432 4.21199 3.3
    endloop
  endfacet
  facet normal 0 0 1
    outer loop
      vertex 15.4877 3.40798 3.3
      vertex 14.9267 3.40798 3.3
      vertex 15.0205 2.45697 3.3
    endloop
  endfacet
  facet normal 0 0 1
    outer loop
      vertex 15.5432 4.21199 3.3
      vertex 15.0182 4.37546 3.3
      vertex 14.9267 3.40798 3.3
    endloop
  endfacet
  facet normal 0 0 1
    outer loop
      vertex 15.4877 3.40798 3.3
      vertex 15.0205 2.45697 3.3
      vertex 15.3017 1.76396 3.3
    endloop
  endfacet
  facet normal 0 0 1
    outer loop
      vertex 17.1557 2.08499 3.3
      vertex 17.8569 2.46073 3.3
      vertex 17.329 2.63175 3.3
    endloop
  endfacet
  facet normal 0 0 1
    outer loop
      vertex 17.8569 2.46073 3.3
      vertex 17.1557 2.08499 3.3
      vertex 17.5667 1.76698 3.3
    endloop
  endfacet
  facet normal 0 0 1
    outer loop
      vertex 16.8625 1.76323 3.3
      vertex 17.5667 1.76698 3.3
      vertex 17.1557 2.08499 3.3
    endloop
  endfacet
  facet normal 0 0 1
    outer loop
      vertex 17.5667 1.76698 3.3
      vertex 16.8625 1.76323 3.3
      vertex 17.0912 1.34172 3.3
    endloop
  endfacet
  facet normal 0 0 1
    outer loop
      vertex 16.4327 1.2 3.3
      vertex 16.8625 1.76323 3.3
      vertex 16.4387 1.65598 3.3
    endloop
  endfacet
  facet normal 0 0 1
    outer loop
      vertex 16.8625 1.76323 3.3
      vertex 16.4327 1.2 3.3
      vertex 17.0912 1.34172 3.3
    endloop
  endfacet
  facet normal 0 0 1
    outer loop
      vertex 16.0105 1.76099 3.3
      vertex 16.4327 1.2 3.3
      vertex 16.4387 1.65598 3.3
    endloop
  endfacet
  facet normal 0 0 1
    outer loop
      vertex 16.0105 1.76099 3.3
      vertex 15.7735 1.34099 3.3
      vertex 16.4327 1.2 3.3
    endloop
  endfacet
  facet normal -0 0 1
    outer loop
      vertex 15.3017 1.76396 3.3
      vertex 16.0105 1.76099 3.3
      vertex 15.7157 2.07598 3.3
    endloop
  endfacet
  facet normal 0 0 1
    outer loop
      vertex 15.3017 1.76396 3.3
      vertex 15.7157 2.07598 3.3
      vertex 15.5447 2.62049 3.3
    endloop
  endfacet
  facet normal 0 0 1
    outer loop
      vertex 16.0105 1.76099 3.3
      vertex 15.3017 1.76396 3.3
      vertex 15.7735 1.34099 3.3
    endloop
  endfacet
  facet normal 0 0 1
    outer loop
      vertex 15.3017 1.76396 3.3
      vertex 15.5447 2.62049 3.3
      vertex 15.4877 3.40798 3.3
    endloop
  endfacet
  facet normal -0 0 1
    outer loop
      vertex 18.3523 3.12 3.3
      vertex 19.8973 2.62497 3.3
      vertex 19.8973 3.12 3.3
    endloop
  endfacet
  facet normal 0 0 1
    outer loop
      vertex 19.8973 2.62497 3.3
      vertex 18.3523 3.12 3.3
      vertex 18.3523 2.62497 3.3
    endloop
  endfacet
  facet normal 0.666616 -0.745401 0
    outer loop
      vertex 6.91347 1.34172 1.5
      vertex 7.38899 1.76698 3.3
      vertex 6.91347 1.34172 3.3
    endloop
  endfacet
  facet normal 0.666616 -0.745401 0
    outer loop
      vertex 7.38899 1.76698 3.3
      vertex 6.91347 1.34172 1.5
      vertex 7.38899 1.76698 1.5
    endloop
  endfacet
  facet normal 0.92253 -0.385927 0
    outer loop
      vertex 7.38899 1.76698 3.3
      vertex 7.67921 2.46073 1.5
      vertex 7.67921 2.46073 3.3
    endloop
  endfacet
  facet normal 0.92253 -0.385927 0
    outer loop
      vertex 7.67921 2.46073 1.5
      vertex 7.38899 1.76698 3.3
      vertex 7.38899 1.76698 1.5
    endloop
  endfacet
  facet normal 0.994821 -0.10164 0
    outer loop
      vertex 7.67921 2.46073 3.3
      vertex 7.77599 3.40798 1.5
      vertex 7.77599 3.40798 3.3
    endloop
  endfacet
  facet normal 0.994821 -0.10164 0
    outer loop
      vertex 7.77599 3.40798 1.5
      vertex 7.67921 2.46073 3.3
      vertex 7.67921 2.46073 1.5
    endloop
  endfacet
  facet normal 0.995474 0.095039 0
    outer loop
      vertex 7.77599 3.40798 3.3
      vertex 7.68448 4.36649 1.5
      vertex 7.68448 4.36649 3.3
    endloop
  endfacet
  facet normal 0.995474 0.095039 0
    outer loop
      vertex 7.68448 4.36649 1.5
      vertex 7.77599 3.40798 3.3
      vertex 7.77599 3.40798 1.5
    endloop
  endfacet
  facet normal 0.929438 0.368979 0
    outer loop
      vertex 7.68448 4.36649 3.3
      vertex 7.40996 5.05799 1.5
      vertex 7.40996 5.05799 3.3
    endloop
  endfacet
  facet normal 0.929438 0.368979 0
    outer loop
      vertex 7.40996 5.05799 1.5
      vertex 7.68448 4.36649 3.3
      vertex 7.68448 4.36649 1.5
    endloop
  endfacet
  facet normal 0.667169 0.744906 -0
    outer loop
      vertex 7.40996 5.05799 1.5
      vertex 6.94272 5.47647 3.3
      vertex 7.40996 5.05799 3.3
    endloop
  endfacet
  facet normal 0.667169 0.744906 0
    outer loop
      vertex 6.94272 5.47647 3.3
      vertex 7.40996 5.05799 1.5
      vertex 6.94272 5.47647 1.5
    endloop
  endfacet
  facet normal 0.20388 0.978996 -0
    outer loop
      vertex 6.94272 5.47647 1.5
      vertex 6.27296 5.61595 3.3
      vertex 6.94272 5.47647 3.3
    endloop
  endfacet
  facet normal 0.20388 0.978996 0
    outer loop
      vertex 6.27296 5.61595 3.3
      vertex 6.94272 5.47647 1.5
      vertex 6.27296 5.61595 1.5
    endloop
  endfacet
  facet normal -0.197312 0.980341 0
    outer loop
      vertex 6.27296 5.61595 1.5
      vertex 5.58746 5.47798 3.3
      vertex 6.27296 5.61595 3.3
    endloop
  endfacet
  facet normal -0.197312 0.980341 0
    outer loop
      vertex 5.58746 5.47798 3.3
      vertex 6.27296 5.61595 1.5
      vertex 5.58746 5.47798 1.5
    endloop
  endfacet
  facet normal -0.659012 0.752133 0
    outer loop
      vertex 5.58746 5.47798 1.5
      vertex 5.11496 5.06398 3.3
      vertex 5.58746 5.47798 3.3
    endloop
  endfacet
  facet normal -0.659012 0.752133 0
    outer loop
      vertex 5.11496 5.06398 3.3
      vertex 5.58746 5.47798 1.5
      vertex 5.11496 5.06398 1.5
    endloop
  endfacet
  facet normal -0.928908 0.370311 0
    outer loop
      vertex 4.84048 4.37546 1.5
      vertex 5.11496 5.06398 3.3
      vertex 5.11496 5.06398 1.5
    endloop
  endfacet
  facet normal -0.928908 0.370311 0
    outer loop
      vertex 5.11496 5.06398 3.3
      vertex 4.84048 4.37546 1.5
      vertex 4.84048 4.37546 3.3
    endloop
  endfacet
  facet normal -0.995558 0.0941554 0
    outer loop
      vertex 4.74898 3.40798 1.5
      vertex 4.84048 4.37546 3.3
      vertex 4.84048 4.37546 1.5
    endloop
  endfacet
  facet normal -0.995558 0.0941554 0
    outer loop
      vertex 4.84048 4.37546 3.3
      vertex 4.74898 3.40798 1.5
      vertex 4.74898 3.40798 3.3
    endloop
  endfacet
  facet normal -0.995177 -0.0980951 0
    outer loop
      vertex 4.77139 3.18063 1.5
      vertex 4.74898 3.40798 3.3
      vertex 4.74898 3.40798 1.5
    endloop
  endfacet
  facet normal -0.995177 -0.0980951 0
    outer loop
      vertex 4.74898 3.40798 3.3
      vertex 4.77139 3.18063 1.5
      vertex 4.77139 3.18063 3.3
    endloop
  endfacet
  facet normal -0.995176 -0.0981092 0
    outer loop
      vertex 4.84273 2.45697 1.5
      vertex 4.79334 2.95796 3.3
      vertex 4.79334 2.95796 1.5
    endloop
  endfacet
  facet normal -0.995176 -0.0981092 0
    outer loop
      vertex 4.79334 2.95796 3.3
      vertex 4.84273 2.45697 1.5
      vertex 4.84273 2.45697 3.3
    endloop
  endfacet
  facet normal -0.9266 -0.37605 0
    outer loop
      vertex 5.12398 1.76396 1.5
      vertex 4.84273 2.45697 3.3
      vertex 4.84273 2.45697 1.5
    endloop
  endfacet
  facet normal -0.9266 -0.37605 0
    outer loop
      vertex 4.84273 2.45697 3.3
      vertex 5.12398 1.76396 1.5
      vertex 5.12398 1.76396 3.3
    endloop
  endfacet
  facet normal -0.667548 -0.744566 0
    outer loop
      vertex 5.12398 1.76396 1.5
      vertex 5.59575 1.34099 3.3
      vertex 5.12398 1.76396 3.3
    endloop
  endfacet
  facet normal -0.667548 -0.744566 -0
    outer loop
      vertex 5.59575 1.34099 3.3
      vertex 5.12398 1.76396 1.5
      vertex 5.59575 1.34099 1.5
    endloop
  endfacet
  facet normal -0.209144 -0.977885 0
    outer loop
      vertex 5.59575 1.34099 1.5
      vertex 6.25497 1.2 3.3
      vertex 5.59575 1.34099 3.3
    endloop
  endfacet
  facet normal -0.209144 -0.977885 -0
    outer loop
      vertex 6.25497 1.2 3.3
      vertex 5.59575 1.34099 1.5
      vertex 6.25497 1.2 1.5
    endloop
  endfacet
  facet normal 0.210399 -0.977616 0
    outer loop
      vertex 6.25497 1.2 1.5
      vertex 6.91347 1.34172 3.3
      vertex 6.25497 1.2 3.3
    endloop
  endfacet
  facet normal 0.210399 -0.977616 0
    outer loop
      vertex 6.91347 1.34172 3.3
      vertex 6.25497 1.2 1.5
      vertex 6.91347 1.34172 1.5
    endloop
  endfacet
  facet normal 0.730177 0.683258 0
    outer loop
      vertex 5.83273 1.76099 3.3
      vertex 5.53798 2.07598 1.5
      vertex 5.53798 2.07598 3.3
    endloop
  endfacet
  facet normal 0.730177 0.683258 0
    outer loop
      vertex 5.53798 2.07598 1.5
      vertex 5.83273 1.76099 3.3
      vertex 5.83273 1.76099 1.5
    endloop
  endfacet
  facet normal 0.95405 0.299648 0
    outer loop
      vertex 5.53798 2.07598 3.3
      vertex 5.36696 2.62049 1.5
      vertex 5.36696 2.62049 3.3
    endloop
  endfacet
  facet normal 0.95405 0.299648 0
    outer loop
      vertex 5.36696 2.62049 1.5
      vertex 5.53798 2.07598 3.3
      vertex 5.53798 2.07598 1.5
    endloop
  endfacet
  facet normal 0.997392 0.0721804 0
    outer loop
      vertex 5.36696 2.62049 3.3
      vertex 5.30997 3.40798 1.5
      vertex 5.30997 3.40798 3.3
    endloop
  endfacet
  facet normal 0.997392 0.0721804 0
    outer loop
      vertex 5.30997 3.40798 1.5
      vertex 5.36696 2.62049 3.3
      vertex 5.36696 2.62049 1.5
    endloop
  endfacet
  facet normal 0.997624 -0.0688898 0
    outer loop
      vertex 5.30997 3.40798 3.3
      vertex 5.36549 4.21199 1.5
      vertex 5.36549 4.21199 3.3
    endloop
  endfacet
  facet normal 0.997624 -0.0688898 0
    outer loop
      vertex 5.36549 4.21199 1.5
      vertex 5.30997 3.40798 3.3
      vertex 5.30997 3.40798 1.5
    endloop
  endfacet
  facet normal 0.955609 -0.294639 0
    outer loop
      vertex 5.36549 4.21199 3.3
      vertex 5.53198 4.75197 1.5
      vertex 5.53198 4.75197 3.3
    endloop
  endfacet
  facet normal 0.955609 -0.294639 0
    outer loop
      vertex 5.53198 4.75197 1.5
      vertex 5.36549 4.21199 3.3
      vertex 5.36549 4.21199 1.5
    endloop
  endfacet
  facet normal 0.719285 -0.694715 0
    outer loop
      vertex 5.53198 4.75197 3.3
      vertex 5.82971 5.06023 1.5
      vertex 5.82971 5.06023 3.3
    endloop
  endfacet
  facet normal 0.719285 -0.694715 0
    outer loop
      vertex 5.82971 5.06023 1.5
      vertex 5.53198 4.75197 3.3
      vertex 5.53198 4.75197 1.5
    endloop
  endfacet
  facet normal 0.225864 -0.974159 0
    outer loop
      vertex 5.82971 5.06023 1.5
      vertex 6.27296 5.163 3.3
      vertex 5.82971 5.06023 3.3
    endloop
  endfacet
  facet normal 0.225864 -0.974159 0
    outer loop
      vertex 6.27296 5.163 3.3
      vertex 5.82971 5.06023 1.5
      vertex 6.27296 5.163 1.5
    endloop
  endfacet
  facet normal -0.23581 -0.971799 0
    outer loop
      vertex 6.27296 5.163 1.5
      vertex 6.70271 5.05872 3.3
      vertex 6.27296 5.163 3.3
    endloop
  endfacet
  facet normal -0.23581 -0.971799 -0
    outer loop
      vertex 6.70271 5.05872 3.3
      vertex 6.27296 5.163 1.5
      vertex 6.70271 5.05872 1.5
    endloop
  endfacet
  facet normal -0.736494 -0.676444 0
    outer loop
      vertex 6.98996 4.74597 1.5
      vertex 6.70271 5.05872 3.3
      vertex 6.70271 5.05872 1.5
    endloop
  endfacet
  facet normal -0.736494 -0.676444 0
    outer loop
      vertex 6.70271 5.05872 3.3
      vertex 6.98996 4.74597 1.5
      vertex 6.98996 4.74597 3.3
    endloop
  endfacet
  facet normal -0.956945 -0.29027 0
    outer loop
      vertex 7.15421 4.20448 1.5
      vertex 6.98996 4.74597 3.3
      vertex 6.98996 4.74597 1.5
    endloop
  endfacet
  facet normal -0.956945 -0.29027 0
    outer loop
      vertex 6.98996 4.74597 3.3
      vertex 7.15421 4.20448 1.5
      vertex 7.15421 4.20448 3.3
    endloop
  endfacet
  facet normal -0.997642 -0.0686263 0
    outer loop
      vertex 7.209 3.40798 1.5
      vertex 7.15421 4.20448 3.3
      vertex 7.15421 4.20448 1.5
    endloop
  endfacet
  facet normal -0.997642 -0.0686263 0
    outer loop
      vertex 7.15421 4.20448 3.3
      vertex 7.209 3.40798 1.5
      vertex 7.209 3.40798 3.3
    endloop
  endfacet
  facet normal -0.997242 0.0742186 0
    outer loop
      vertex 7.15123 2.63175 1.5
      vertex 7.209 3.40798 3.3
      vertex 7.209 3.40798 1.5
    endloop
  endfacet
  facet normal -0.997242 0.0742186 0
    outer loop
      vertex 7.209 3.40798 3.3
      vertex 7.15123 2.63175 1.5
      vertex 7.15123 2.63175 3.3
    endloop
  endfacet
  facet normal -0.953282 0.302081 0
    outer loop
      vertex 6.97797 2.08499 1.5
      vertex 7.15123 2.63175 3.3
      vertex 7.15123 2.63175 1.5
    endloop
  endfacet
  facet normal -0.953282 0.302081 0
    outer loop
      vertex 7.15123 2.63175 3.3
      vertex 6.97797 2.08499 1.5
      vertex 6.97797 2.08499 3.3
    endloop
  endfacet
  facet normal -0.739092 0.673604 0
    outer loop
      vertex 6.68472 1.76323 1.5
      vertex 6.97797 2.08499 3.3
      vertex 6.97797 2.08499 1.5
    endloop
  endfacet
  facet normal -0.739092 0.673604 0
    outer loop
      vertex 6.97797 2.08499 3.3
      vertex 6.68472 1.76323 1.5
      vertex 6.68472 1.76323 3.3
    endloop
  endfacet
  facet normal -0.245361 0.969432 0
    outer loop
      vertex 6.68472 1.76323 1.5
      vertex 6.26097 1.65598 3.3
      vertex 6.68472 1.76323 3.3
    endloop
  endfacet
  facet normal -0.245361 0.969432 0
    outer loop
      vertex 6.26097 1.65598 3.3
      vertex 6.68472 1.76323 1.5
      vertex 6.26097 1.65598 1.5
    endloop
  endfacet
  facet normal 0.238157 0.971227 -0
    outer loop
      vertex 6.26097 1.65598 1.5
      vertex 5.83273 1.76099 3.3
      vertex 6.26097 1.65598 3.3
    endloop
  endfacet
  facet normal 0.238157 0.971227 0
    outer loop
      vertex 5.83273 1.76099 3.3
      vertex 6.26097 1.65598 1.5
      vertex 5.83273 1.76099 1.5
    endloop
  endfacet
  facet normal 0 1 -0
    outer loop
      vertex 11.1056 1.67397 1.5
      vertex 10.0465 1.67397 3.3
      vertex 11.1056 1.67397 3.3
    endloop
  endfacet
  facet normal 0 1 0
    outer loop
      vertex 10.0465 1.67397 3.3
      vertex 11.1056 1.67397 1.5
      vertex 10.0465 1.67397 1.5
    endloop
  endfacet
  facet normal 1 -0 0
    outer loop
      vertex 10.0465 1.67397 3.3
      vertex 10.0465 5.61595 1.5
      vertex 10.0465 5.61595 3.3
    endloop
  endfacet
  facet normal 1 0 0
    outer loop
      vertex 10.0465 5.61595 1.5
      vertex 10.0465 1.67397 3.3
      vertex 10.0465 1.67397 1.5
    endloop
  endfacet
  facet normal 0 1 -0
    outer loop
      vertex 10.0465 5.61595 1.5
      vertex 9.53357 5.61595 3.3
      vertex 10.0465 5.61595 3.3
    endloop
  endfacet
  facet normal 0 1 0
    outer loop
      vertex 9.53357 5.61595 3.3
      vertex 10.0465 5.61595 1.5
      vertex 9.53357 5.61595 1.5
    endloop
  endfacet
  facet normal -0.519226 0.854637 0
    outer loop
      vertex 9.53357 5.61595 1.5
      vertex 8.50154 4.98895 3.3
      vertex 9.53357 5.61595 3.3
    endloop
  endfacet
  facet normal -0.519226 0.854637 0
    outer loop
      vertex 8.50154 4.98895 3.3
      vertex 9.53357 5.61595 1.5
      vertex 8.50154 4.98895 1.5
    endloop
  endfacet
  facet normal -1 0 0
    outer loop
      vertex 8.50154 4.46399 1.5
      vertex 8.50154 4.98895 3.3
      vertex 8.50154 4.98895 1.5
    endloop
  endfacet
  facet normal -1 -0 0
    outer loop
      vertex 8.50154 4.98895 3.3
      vertex 8.50154 4.46399 1.5
      vertex 8.50154 4.46399 3.3
    endloop
  endfacet
  facet normal 0.533698 -0.845675 0
    outer loop
      vertex 8.50154 4.46399 1.5
      vertex 9.48555 5.08499 3.3
      vertex 8.50154 4.46399 3.3
    endloop
  endfacet
  facet normal 0.533698 -0.845675 0
    outer loop
      vertex 9.48555 5.08499 3.3
      vertex 8.50154 4.46399 1.5
      vertex 9.48555 5.08499 1.5
    endloop
  endfacet
  facet normal -1 0 0
    outer loop
      vertex 9.48555 1.67397 1.5
      vertex 9.48555 5.08499 3.3
      vertex 9.48555 5.08499 1.5
    endloop
  endfacet
  facet normal -1 -0 0
    outer loop
      vertex 9.48555 5.08499 3.3
      vertex 9.48555 1.67397 1.5
      vertex 9.48555 1.67397 3.3
    endloop
  endfacet
  facet normal 0 1 -0
    outer loop
      vertex 9.48555 1.67397 1.5
      vertex 8.37556 1.67397 3.3
      vertex 9.48555 1.67397 3.3
    endloop
  endfacet
  facet normal 0 1 0
    outer loop
      vertex 8.37556 1.67397 3.3
      vertex 9.48555 1.67397 1.5
      vertex 8.37556 1.67397 1.5
    endloop
  endfacet
  facet normal -1 0 0
    outer loop
      vertex 8.37556 1.2 1.5
      vertex 8.37556 1.67397 3.3
      vertex 8.37556 1.67397 1.5
    endloop
  endfacet
  facet normal -1 -0 0
    outer loop
      vertex 8.37556 1.67397 3.3
      vertex 8.37556 1.2 1.5
      vertex 8.37556 1.2 3.3
    endloop
  endfacet
  facet normal 0 -1 0
    outer loop
      vertex 8.37556 1.2 1.5
      vertex 11.1056 1.2 3.3
      vertex 8.37556 1.2 3.3
    endloop
  endfacet
  facet normal 0 -1 -0
    outer loop
      vertex 11.1056 1.2 3.3
      vertex 8.37556 1.2 1.5
      vertex 11.1056 1.2 1.5
    endloop
  endfacet
  facet normal 1 -0 0
    outer loop
      vertex 11.1056 1.2 3.3
      vertex 11.1056 1.67397 1.5
      vertex 11.1056 1.67397 3.3
    endloop
  endfacet
  facet normal 1 0 0
    outer loop
      vertex 11.1056 1.67397 1.5
      vertex 11.1056 1.2 3.3
      vertex 11.1056 1.2 1.5
    endloop
  endfacet
  facet normal 0.666632 -0.745387 0
    outer loop
      vertex 13.6986 1.34172 1.5
      vertex 14.1741 1.76698 3.3
      vertex 13.6986 1.34172 3.3
    endloop
  endfacet
  facet normal 0.666632 -0.745387 0
    outer loop
      vertex 14.1741 1.76698 3.3
      vertex 13.6986 1.34172 1.5
      vertex 14.1741 1.76698 1.5
    endloop
  endfacet
  facet normal 0.922492 -0.386017 0
    outer loop
      vertex 14.1741 1.76698 3.3
      vertex 14.4644 2.46073 1.5
      vertex 14.4644 2.46073 3.3
    endloop
  endfacet
  facet normal 0.922492 -0.386017 0
    outer loop
      vertex 14.4644 2.46073 1.5
      vertex 14.1741 1.76698 3.3
      vertex 14.1741 1.76698 1.5
    endloop
  endfacet
  facet normal 0.99483 -0.101557 0
    outer loop
      vertex 14.4644 2.46073 3.3
      vertex 14.5611 3.40798 1.5
      vertex 14.5611 3.40798 3.3
    endloop
  endfacet
  facet normal 0.99483 -0.101557 0
    outer loop
      vertex 14.5611 3.40798 1.5
      vertex 14.4644 2.46073 3.3
      vertex 14.4644 2.46073 1.5
    endloop
  endfacet
  facet normal 0.995475 0.0950287 0
    outer loop
      vertex 14.5611 3.40798 3.3
      vertex 14.4696 4.36649 1.5
      vertex 14.4696 4.36649 3.3
    endloop
  endfacet
  facet normal 0.995475 0.0950287 0
    outer loop
      vertex 14.4696 4.36649 1.5
      vertex 14.5611 3.40798 3.3
      vertex 14.5611 3.40798 1.5
    endloop
  endfacet
  facet normal 0.929447 0.368956 0
    outer loop
      vertex 14.4696 4.36649 3.3
      vertex 14.1951 5.05799 1.5
      vertex 14.1951 5.05799 3.3
    endloop
  endfacet
  facet normal 0.929447 0.368956 0
    outer loop
      vertex 14.1951 5.05799 1.5
      vertex 14.4696 4.36649 3.3
      vertex 14.4696 4.36649 1.5
    endloop
  endfacet
  facet normal 0.667201 0.744878 -0
    outer loop
      vertex 14.1951 5.05799 1.5
      vertex 13.7279 5.47647 3.3
      vertex 14.1951 5.05799 3.3
    endloop
  endfacet
  facet normal 0.667201 0.744878 0
    outer loop
      vertex 13.7279 5.47647 3.3
      vertex 14.1951 5.05799 1.5
      vertex 13.7279 5.47647 1.5
    endloop
  endfacet
  facet normal 0.203868 0.978998 -0
    outer loop
      vertex 13.7279 5.47647 1.5
      vertex 13.0581 5.61595 3.3
      vertex 13.7279 5.47647 3.3
    endloop
  endfacet
  facet normal 0.203868 0.978998 0
    outer loop
      vertex 13.0581 5.61595 3.3
      vertex 13.7279 5.47647 1.5
      vertex 13.0581 5.61595 1.5
    endloop
  endfacet
  facet normal -0.197312 0.980341 0
    outer loop
      vertex 13.0581 5.61595 1.5
      vertex 12.3726 5.47798 3.3
      vertex 13.0581 5.61595 3.3
    endloop
  endfacet
  facet normal -0.197312 0.980341 0
    outer loop
      vertex 12.3726 5.47798 3.3
      vertex 13.0581 5.61595 1.5
      vertex 12.3726 5.47798 1.5
    endloop
  endfacet
  facet normal -0.659012 0.752133 0
    outer loop
      vertex 12.3726 5.47798 1.5
      vertex 11.9001 5.06398 3.3
      vertex 12.3726 5.47798 3.3
    endloop
  endfacet
  facet normal -0.659012 0.752133 0
    outer loop
      vertex 11.9001 5.06398 3.3
      vertex 12.3726 5.47798 1.5
      vertex 11.9001 5.06398 1.5
    endloop
  endfacet
  facet normal -0.928899 0.370334 0
    outer loop
      vertex 11.6256 4.37546 1.5
      vertex 11.9001 5.06398 3.3
      vertex 11.9001 5.06398 1.5
    endloop
  endfacet
  facet normal -0.928899 0.370334 0
    outer loop
      vertex 11.9001 5.06398 3.3
      vertex 11.6256 4.37546 1.5
      vertex 11.6256 4.37546 3.3
    endloop
  endfacet
  facet normal -0.995558 0.0941554 0
    outer loop
      vertex 11.5341 3.40798 1.5
      vertex 11.6256 4.37546 3.3
      vertex 11.6256 4.37546 1.5
    endloop
  endfacet
  facet normal -0.995558 0.0941554 0
    outer loop
      vertex 11.6256 4.37546 3.3
      vertex 11.5341 3.40798 1.5
      vertex 11.5341 3.40798 3.3
    endloop
  endfacet
  facet normal -0.995171 -0.0981557 0
    outer loop
      vertex 11.6279 2.45697 1.5
      vertex 11.5341 3.40798 3.3
      vertex 11.5341 3.40798 1.5
    endloop
  endfacet
  facet normal -0.995171 -0.0981557 0
    outer loop
      vertex 11.5341 3.40798 3.3
      vertex 11.6279 2.45697 1.5
      vertex 11.6279 2.45697 3.3
    endloop
  endfacet
  facet normal -0.926623 -0.375992 0
    outer loop
      vertex 11.9091 1.76396 1.5
      vertex 11.6279 2.45697 3.3
      vertex 11.6279 2.45697 1.5
    endloop
  endfacet
  facet normal -0.926623 -0.375992 0
    outer loop
      vertex 11.6279 2.45697 3.3
      vertex 11.9091 1.76396 1.5
      vertex 11.9091 1.76396 3.3
    endloop
  endfacet
  facet normal -0.667525 -0.744588 0
    outer loop
      vertex 11.9091 1.76396 1.5
      vertex 12.3809 1.34099 3.3
      vertex 11.9091 1.76396 3.3
    endloop
  endfacet
  facet normal -0.667525 -0.744588 -0
    outer loop
      vertex 12.3809 1.34099 3.3
      vertex 11.9091 1.76396 1.5
      vertex 12.3809 1.34099 1.5
    endloop
  endfacet
  facet normal -0.20915 -0.977884 0
    outer loop
      vertex 12.3809 1.34099 1.5
      vertex 13.0401 1.2 3.3
      vertex 12.3809 1.34099 3.3
    endloop
  endfacet
  facet normal -0.20915 -0.977884 -0
    outer loop
      vertex 13.0401 1.2 3.3
      vertex 12.3809 1.34099 1.5
      vertex 13.0401 1.2 1.5
    endloop
  endfacet
  facet normal 0.210399 -0.977616 0
    outer loop
      vertex 13.0401 1.2 1.5
      vertex 13.6986 1.34172 3.3
      vertex 13.0401 1.2 3.3
    endloop
  endfacet
  facet normal 0.210399 -0.977616 0
    outer loop
      vertex 13.6986 1.34172 3.3
      vertex 13.0401 1.2 1.5
      vertex 13.6986 1.34172 1.5
    endloop
  endfacet
  facet normal 0.730119 0.68332 0
    outer loop
      vertex 12.6179 1.76099 3.3
      vertex 12.3231 2.07598 1.5
      vertex 12.3231 2.07598 3.3
    endloop
  endfacet
  facet normal 0.730119 0.68332 0
    outer loop
      vertex 12.3231 2.07598 1.5
      vertex 12.6179 1.76099 3.3
      vertex 12.6179 1.76099 1.5
    endloop
  endfacet
  facet normal 0.95406 0.299617 0
    outer loop
      vertex 12.3231 2.07598 3.3
      vertex 12.1521 2.62049 1.5
      vertex 12.1521 2.62049 3.3
    endloop
  endfacet
  facet normal 0.95406 0.299617 0
    outer loop
      vertex 12.1521 2.62049 1.5
      vertex 12.3231 2.07598 3.3
      vertex 12.3231 2.07598 1.5
    endloop
  endfacet
  facet normal 0.997391 0.072193 0
    outer loop
      vertex 12.1521 2.62049 3.3
      vertex 12.0951 3.40798 1.5
      vertex 12.0951 3.40798 3.3
    endloop
  endfacet
  facet normal 0.997391 0.072193 0
    outer loop
      vertex 12.0951 3.40798 1.5
      vertex 12.1521 2.62049 3.3
      vertex 12.1521 2.62049 1.5
    endloop
  endfacet
  facet normal 0.997617 -0.0689886 0
    outer loop
      vertex 12.0951 3.40798 3.3
      vertex 12.1507 4.21199 1.5
      vertex 12.1507 4.21199 3.3
    endloop
  endfacet
  facet normal 0.997617 -0.0689886 0
    outer loop
      vertex 12.1507 4.21199 1.5
      vertex 12.0951 3.40798 3.3
      vertex 12.0951 3.40798 1.5
    endloop
  endfacet
  facet normal 0.955653 -0.294494 0
    outer loop
      vertex 12.1507 4.21199 3.3
      vertex 12.3171 4.75197 1.5
      vertex 12.3171 4.75197 3.3
    endloop
  endfacet
  facet normal 0.955653 -0.294494 0
    outer loop
      vertex 12.3171 4.75197 1.5
      vertex 12.1507 4.21199 3.3
      vertex 12.1507 4.21199 1.5
    endloop
  endfacet
  facet normal 0.719204 -0.694799 0
    outer loop
      vertex 12.3171 4.75197 3.3
      vertex 12.6149 5.06023 1.5
      vertex 12.6149 5.06023 3.3
    endloop
  endfacet
  facet normal 0.719204 -0.694799 0
    outer loop
      vertex 12.6149 5.06023 1.5
      vertex 12.3171 4.75197 3.3
      vertex 12.3171 4.75197 1.5
    endloop
  endfacet
  facet normal 0.225888 -0.974153 0
    outer loop
      vertex 12.6149 5.06023 1.5
      vertex 13.0581 5.163 3.3
      vertex 12.6149 5.06023 3.3
    endloop
  endfacet
  facet normal 0.225888 -0.974153 0
    outer loop
      vertex 13.0581 5.163 3.3
      vertex 12.6149 5.06023 1.5
      vertex 13.0581 5.163 1.5
    endloop
  endfacet
  facet normal -0.235784 -0.971806 0
    outer loop
      vertex 13.0581 5.163 1.5
      vertex 13.4879 5.05872 3.3
      vertex 13.0581 5.163 3.3
    endloop
  endfacet
  facet normal -0.235784 -0.971806 -0
    outer loop
      vertex 13.4879 5.05872 3.3
      vertex 13.0581 5.163 1.5
      vertex 13.4879 5.05872 1.5
    endloop
  endfacet
  facet normal -0.736553 -0.67638 0
    outer loop
      vertex 13.7751 4.74597 1.5
      vertex 13.4879 5.05872 3.3
      vertex 13.4879 5.05872 1.5
    endloop
  endfacet
  facet normal -0.736553 -0.67638 0
    outer loop
      vertex 13.4879 5.05872 3.3
      vertex 13.7751 4.74597 1.5
      vertex 13.7751 4.74597 3.3
    endloop
  endfacet
  facet normal -0.95692 -0.290351 0
    outer loop
      vertex 13.9394 4.20448 1.5
      vertex 13.7751 4.74597 3.3
      vertex 13.7751 4.74597 1.5
    endloop
  endfacet
  facet normal -0.95692 -0.290351 0
    outer loop
      vertex 13.7751 4.74597 3.3
      vertex 13.9394 4.20448 1.5
      vertex 13.9394 4.20448 3.3
    endloop
  endfacet
  facet normal -0.997642 -0.0686387 0
    outer loop
      vertex 13.9942 3.40798 1.5
      vertex 13.9394 4.20448 3.3
      vertex 13.9394 4.20448 1.5
    endloop
  endfacet
  facet normal -0.997642 -0.0686387 0
    outer loop
      vertex 13.9394 4.20448 3.3
      vertex 13.9942 3.40798 1.5
      vertex 13.9942 3.40798 3.3
    endloop
  endfacet
  facet normal -0.997239 0.0742569 0
    outer loop
      vertex 13.9364 2.63175 1.5
      vertex 13.9942 3.40798 3.3
      vertex 13.9942 3.40798 1.5
    endloop
  endfacet
  facet normal -0.997239 0.0742569 0
    outer loop
      vertex 13.9942 3.40798 3.3
      vertex 13.9364 2.63175 1.5
      vertex 13.9364 2.63175 3.3
    endloop
  endfacet
  facet normal -0.953262 0.302144 0
    outer loop
      vertex 13.7631 2.08499 1.5
      vertex 13.9364 2.63175 3.3
      vertex 13.9364 2.63175 1.5
    endloop
  endfacet
  facet normal -0.953262 0.302144 0
    outer loop
      vertex 13.9364 2.63175 3.3
      vertex 13.7631 2.08499 1.5
      vertex 13.7631 2.08499 3.3
    endloop
  endfacet
  facet normal -0.73915 0.673541 0
    outer loop
      vertex 13.4699 1.76323 1.5
      vertex 13.7631 2.08499 3.3
      vertex 13.7631 2.08499 1.5
    endloop
  endfacet
  facet normal -0.73915 0.673541 0
    outer loop
      vertex 13.7631 2.08499 3.3
      vertex 13.4699 1.76323 1.5
      vertex 13.4699 1.76323 3.3
    endloop
  endfacet
  facet normal -0.245333 0.969439 0
    outer loop
      vertex 13.4699 1.76323 1.5
      vertex 13.0461 1.65598 3.3
      vertex 13.4699 1.76323 3.3
    endloop
  endfacet
  facet normal -0.245333 0.969439 0
    outer loop
      vertex 13.0461 1.65598 3.3
      vertex 13.4699 1.76323 1.5
      vertex 13.0461 1.65598 1.5
    endloop
  endfacet
  facet normal 0.238178 0.971221 -0
    outer loop
      vertex 13.0461 1.65598 1.5
      vertex 12.6179 1.76099 3.3
      vertex 13.0461 1.65598 3.3
    endloop
  endfacet
  facet normal 0.238178 0.971221 0
    outer loop
      vertex 12.6179 1.76099 3.3
      vertex 13.0461 1.65598 1.5
      vertex 12.6179 1.76099 1.5
    endloop
  endfacet
  facet normal 0.666632 -0.745387 0
    outer loop
      vertex 17.0912 1.34172 1.5
      vertex 17.5667 1.76698 3.3
      vertex 17.0912 1.34172 3.3
    endloop
  endfacet
  facet normal 0.666632 -0.745387 0
    outer loop
      vertex 17.5667 1.76698 3.3
      vertex 17.0912 1.34172 1.5
      vertex 17.5667 1.76698 1.5
    endloop
  endfacet
  facet normal 0.922539 -0.385904 0
    outer loop
      vertex 17.5667 1.76698 3.3
      vertex 17.8569 2.46073 1.5
      vertex 17.8569 2.46073 3.3
    endloop
  endfacet
  facet normal 0.922539 -0.385904 0
    outer loop
      vertex 17.8569 2.46073 1.5
      vertex 17.5667 1.76698 3.3
      vertex 17.5667 1.76698 1.5
    endloop
  endfacet
  facet normal 0.994819 -0.101661 0
    outer loop
      vertex 17.8569 2.46073 3.3
      vertex 17.9537 3.40798 1.5
      vertex 17.9537 3.40798 3.3
    endloop
  endfacet
  facet normal 0.994819 -0.101661 0
    outer loop
      vertex 17.9537 3.40798 1.5
      vertex 17.8569 2.46073 3.3
      vertex 17.8569 2.46073 1.5
    endloop
  endfacet
  facet normal 0.995475 0.0950287 0
    outer loop
      vertex 17.9537 3.40798 3.3
      vertex 17.8622 4.36649 1.5
      vertex 17.8622 4.36649 3.3
    endloop
  endfacet
  facet normal 0.995475 0.0950287 0
    outer loop
      vertex 17.8622 4.36649 1.5
      vertex 17.9537 3.40798 3.3
      vertex 17.9537 3.40798 1.5
    endloop
  endfacet
  facet normal 0.929447 0.368956 0
    outer loop
      vertex 17.8622 4.36649 3.3
      vertex 17.5877 5.05799 1.5
      vertex 17.5877 5.05799 3.3
    endloop
  endfacet
  facet normal 0.929447 0.368956 0
    outer loop
      vertex 17.5877 5.05799 1.5
      vertex 17.8622 4.36649 3.3
      vertex 17.8622 4.36649 1.5
    endloop
  endfacet
  facet normal 0.667201 0.744878 -0
    outer loop
      vertex 17.5877 5.05799 1.5
      vertex 17.1205 5.47647 3.3
      vertex 17.5877 5.05799 3.3
    endloop
  endfacet
  facet normal 0.667201 0.744878 0
    outer loop
      vertex 17.1205 5.47647 3.3
      vertex 17.5877 5.05799 1.5
      vertex 17.1205 5.47647 1.5
    endloop
  endfacet
  facet normal 0.203868 0.978998 -0
    outer loop
      vertex 17.1205 5.47647 1.5
      vertex 16.4507 5.61595 3.3
      vertex 17.1205 5.47647 3.3
    endloop
  endfacet
  facet normal 0.203868 0.978998 0
    outer loop
      vertex 16.4507 5.61595 3.3
      vertex 17.1205 5.47647 1.5
      vertex 16.4507 5.61595 1.5
    endloop
  endfacet
  facet normal -0.197312 0.980341 0
    outer loop
      vertex 16.4507 5.61595 1.5
      vertex 15.7652 5.47798 3.3
      vertex 16.4507 5.61595 3.3
    endloop
  endfacet
  facet normal -0.197312 0.980341 0
    outer loop
      vertex 15.7652 5.47798 3.3
      vertex 16.4507 5.61595 1.5
      vertex 15.7652 5.47798 1.5
    endloop
  endfacet
  facet normal -0.659012 0.752133 0
    outer loop
      vertex 15.7652 5.47798 1.5
      vertex 15.2927 5.06398 3.3
      vertex 15.7652 5.47798 3.3
    endloop
  endfacet
  facet normal -0.659012 0.752133 0
    outer loop
      vertex 15.2927 5.06398 3.3
      vertex 15.7652 5.47798 1.5
      vertex 15.2927 5.06398 1.5
    endloop
  endfacet
  facet normal -0.928899 0.370334 0
    outer loop
      vertex 15.0182 4.37546 1.5
      vertex 15.2927 5.06398 3.3
      vertex 15.2927 5.06398 1.5
    endloop
  endfacet
  facet normal -0.928899 0.370334 0
    outer loop
      vertex 15.2927 5.06398 3.3
      vertex 15.0182 4.37546 1.5
      vertex 15.0182 4.37546 3.3
    endloop
  endfacet
  facet normal -0.995558 0.0941554 0
    outer loop
      vertex 14.9267 3.40798 1.5
      vertex 15.0182 4.37546 3.3
      vertex 15.0182 4.37546 1.5
    endloop
  endfacet
  facet normal -0.995558 0.0941554 0
    outer loop
      vertex 15.0182 4.37546 3.3
      vertex 14.9267 3.40798 1.5
      vertex 14.9267 3.40798 3.3
    endloop
  endfacet
  facet normal -0.995171 -0.0981557 0
    outer loop
      vertex 15.0205 2.45697 1.5
      vertex 14.9267 3.40798 3.3
      vertex 14.9267 3.40798 1.5
    endloop
  endfacet
  facet normal -0.995171 -0.0981557 0
    outer loop
      vertex 14.9267 3.40798 3.3
      vertex 15.0205 2.45697 1.5
      vertex 15.0205 2.45697 3.3
    endloop
  endfacet
  facet normal -0.926623 -0.375992 0
    outer loop
      vertex 15.3017 1.76396 1.5
      vertex 15.0205 2.45697 3.3
      vertex 15.0205 2.45697 1.5
    endloop
  endfacet
  facet normal -0.926623 -0.375992 0
    outer loop
      vertex 15.0205 2.45697 3.3
      vertex 15.3017 1.76396 1.5
      vertex 15.3017 1.76396 3.3
    endloop
  endfacet
  facet normal -0.667525 -0.744588 0
    outer loop
      vertex 15.3017 1.76396 1.5
      vertex 15.7735 1.34099 3.3
      vertex 15.3017 1.76396 3.3
    endloop
  endfacet
  facet normal -0.667525 -0.744588 -0
    outer loop
      vertex 15.7735 1.34099 3.3
      vertex 15.3017 1.76396 1.5
      vertex 15.7735 1.34099 1.5
    endloop
  endfacet
  facet normal -0.20915 -0.977884 0
    outer loop
      vertex 15.7735 1.34099 1.5
      vertex 16.4327 1.2 3.3
      vertex 15.7735 1.34099 3.3
    endloop
  endfacet
  facet normal -0.20915 -0.977884 -0
    outer loop
      vertex 16.4327 1.2 3.3
      vertex 15.7735 1.34099 1.5
      vertex 16.4327 1.2 1.5
    endloop
  endfacet
  facet normal 0.210399 -0.977616 0
    outer loop
      vertex 16.4327 1.2 1.5
      vertex 17.0912 1.34172 3.3
      vertex 16.4327 1.2 3.3
    endloop
  endfacet
  facet normal 0.210399 -0.977616 0
    outer loop
      vertex 17.0912 1.34172 3.3
      vertex 16.4327 1.2 1.5
      vertex 17.0912 1.34172 1.5
    endloop
  endfacet
  facet normal 0.730119 0.68332 0
    outer loop
      vertex 16.0105 1.76099 3.3
      vertex 15.7157 2.07598 1.5
      vertex 15.7157 2.07598 3.3
    endloop
  endfacet
  facet normal 0.730119 0.68332 0
    outer loop
      vertex 15.7157 2.07598 1.5
      vertex 16.0105 1.76099 3.3
      vertex 16.0105 1.76099 1.5
    endloop
  endfacet
  facet normal 0.95406 0.299617 0
    outer loop
      vertex 15.7157 2.07598 3.3
      vertex 15.5447 2.62049 1.5
      vertex 15.5447 2.62049 3.3
    endloop
  endfacet
  facet normal 0.95406 0.299617 0
    outer loop
      vertex 15.5447 2.62049 1.5
      vertex 15.7157 2.07598 3.3
      vertex 15.7157 2.07598 1.5
    endloop
  endfacet
  facet normal 0.997391 0.072193 0
    outer loop
      vertex 15.5447 2.62049 3.3
      vertex 15.4877 3.40798 1.5
      vertex 15.4877 3.40798 3.3
    endloop
  endfacet
  facet normal 0.997391 0.072193 0
    outer loop
      vertex 15.4877 3.40798 1.5
      vertex 15.5447 2.62049 3.3
      vertex 15.5447 2.62049 1.5
    endloop
  endfacet
  facet normal 0.997626 -0.0688651 0
    outer loop
      vertex 15.4877 3.40798 3.3
      vertex 15.5432 4.21199 1.5
      vertex 15.5432 4.21199 3.3
    endloop
  endfacet
  facet normal 0.997626 -0.0688651 0
    outer loop
      vertex 15.5432 4.21199 1.5
      vertex 15.4877 3.40798 3.3
      vertex 15.4877 3.40798 1.5
    endloop
  endfacet
  facet normal 0.955604 -0.294655 0
    outer loop
      vertex 15.5432 4.21199 3.3
      vertex 15.7097 4.75197 1.5
      vertex 15.7097 4.75197 3.3
    endloop
  endfacet
  facet normal 0.955604 -0.294655 0
    outer loop
      vertex 15.7097 4.75197 1.5
      vertex 15.5432 4.21199 3.3
      vertex 15.5432 4.21199 1.5
    endloop
  endfacet
  facet normal 0.71932 -0.694679 0
    outer loop
      vertex 15.7097 4.75197 3.3
      vertex 16.0074 5.06023 1.5
      vertex 16.0074 5.06023 3.3
    endloop
  endfacet
  facet normal 0.71932 -0.694679 0
    outer loop
      vertex 16.0074 5.06023 1.5
      vertex 15.7097 4.75197 3.3
      vertex 15.7097 4.75197 1.5
    endloop
  endfacet
  facet normal 0.22584 -0.974164 0
    outer loop
      vertex 16.0074 5.06023 1.5
      vertex 16.4507 5.163 3.3
      vertex 16.0074 5.06023 3.3
    endloop
  endfacet
  facet normal 0.22584 -0.974164 0
    outer loop
      vertex 16.4507 5.163 3.3
      vertex 16.0074 5.06023 1.5
      vertex 16.4507 5.163 1.5
    endloop
  endfacet
  facet normal -0.235836 -0.971793 0
    outer loop
      vertex 16.4507 5.163 1.5
      vertex 16.8804 5.05872 3.3
      vertex 16.4507 5.163 3.3
    endloop
  endfacet
  facet normal -0.235836 -0.971793 -0
    outer loop
      vertex 16.8804 5.05872 3.3
      vertex 16.4507 5.163 1.5
      vertex 16.8804 5.05872 1.5
    endloop
  endfacet
  facet normal -0.736435 -0.676508 0
    outer loop
      vertex 17.1677 4.74597 1.5
      vertex 16.8804 5.05872 3.3
      vertex 16.8804 5.05872 1.5
    endloop
  endfacet
  facet normal -0.736435 -0.676508 0
    outer loop
      vertex 16.8804 5.05872 3.3
      vertex 17.1677 4.74597 1.5
      vertex 17.1677 4.74597 3.3
    endloop
  endfacet
  facet normal -0.956969 -0.290189 0
    outer loop
      vertex 17.3319 4.20448 1.5
      vertex 17.1677 4.74597 3.3
      vertex 17.1677 4.74597 1.5
    endloop
  endfacet
  facet normal -0.956969 -0.290189 0
    outer loop
      vertex 17.1677 4.74597 3.3
      vertex 17.3319 4.20448 1.5
      vertex 17.3319 4.20448 3.3
    endloop
  endfacet
  facet normal -0.997642 -0.0686387 0
    outer loop
      vertex 17.3867 3.40798 1.5
      vertex 17.3319 4.20448 3.3
      vertex 17.3319 4.20448 1.5
    endloop
  endfacet
  facet normal -0.997642 -0.0686387 0
    outer loop
      vertex 17.3319 4.20448 3.3
      vertex 17.3867 3.40798 1.5
      vertex 17.3867 3.40798 3.3
    endloop
  endfacet
  facet normal -0.997249 0.0741291 0
    outer loop
      vertex 17.329 2.63175 1.5
      vertex 17.3867 3.40798 3.3
      vertex 17.3867 3.40798 1.5
    endloop
  endfacet
  facet normal -0.997249 0.0741291 0
    outer loop
      vertex 17.3867 3.40798 3.3
      vertex 17.329 2.63175 1.5
      vertex 17.329 2.63175 3.3
    endloop
  endfacet
  facet normal -0.953262 0.302144 0
    outer loop
      vertex 17.1557 2.08499 1.5
      vertex 17.329 2.63175 3.3
      vertex 17.329 2.63175 1.5
    endloop
  endfacet
  facet normal -0.953262 0.302144 0
    outer loop
      vertex 17.329 2.63175 3.3
      vertex 17.1557 2.08499 1.5
      vertex 17.1557 2.08499 3.3
    endloop
  endfacet
  facet normal -0.73915 0.673541 0
    outer loop
      vertex 16.8625 1.76323 1.5
      vertex 17.1557 2.08499 3.3
      vertex 17.1557 2.08499 1.5
    endloop
  endfacet
  facet normal -0.73915 0.673541 0
    outer loop
      vertex 17.1557 2.08499 3.3
      vertex 16.8625 1.76323 1.5
      vertex 16.8625 1.76323 3.3
    endloop
  endfacet
  facet normal -0.245333 0.969439 0
    outer loop
      vertex 16.8625 1.76323 1.5
      vertex 16.4387 1.65598 3.3
      vertex 16.8625 1.76323 3.3
    endloop
  endfacet
  facet normal -0.245333 0.969439 0
    outer loop
      vertex 16.4387 1.65598 3.3
      vertex 16.8625 1.76323 1.5
      vertex 16.4387 1.65598 1.5
    endloop
  endfacet
  facet normal 0.238178 0.971221 -0
    outer loop
      vertex 16.4387 1.65598 1.5
      vertex 16.0105 1.76099 3.3
      vertex 16.4387 1.65598 3.3
    endloop
  endfacet
  facet normal 0.238178 0.971221 0
    outer loop
      vertex 16.0105 1.76099 3.3
      vertex 16.4387 1.65598 1.5
      vertex 16.0105 1.76099 1.5
    endloop
  endfacet
  facet normal 0 1 -0
    outer loop
      vertex 23.3165 1.67397 1.5
      vertex 22.2575 1.67397 3.3
      vertex 23.3165 1.67397 3.3
    endloop
  endfacet
  facet normal 0 1 0
    outer loop
      vertex 22.2575 1.67397 3.3
      vertex 23.3165 1.67397 1.5
      vertex 22.2575 1.67397 1.5
    endloop
  endfacet
  facet normal 1 -0 0
    outer loop
      vertex 22.2575 1.67397 3.3
      vertex 22.2575 5.61595 1.5
      vertex 22.2575 5.61595 3.3
    endloop
  endfacet
  facet normal 1 0 0
    outer loop
      vertex 22.2575 5.61595 1.5
      vertex 22.2575 1.67397 3.3
      vertex 22.2575 1.67397 1.5
    endloop
  endfacet
  facet normal 0 1 -0
    outer loop
      vertex 22.2575 5.61595 1.5
      vertex 21.7445 5.61595 3.3
      vertex 22.2575 5.61595 3.3
    endloop
  endfacet
  facet normal 0 1 0
    outer loop
      vertex 21.7445 5.61595 3.3
      vertex 22.2575 5.61595 1.5
      vertex 21.7445 5.61595 1.5
    endloop
  endfacet
  facet normal -0.519237 0.85463 0
    outer loop
      vertex 21.7445 5.61595 1.5
      vertex 20.7125 4.98895 3.3
      vertex 21.7445 5.61595 3.3
    endloop
  endfacet
  facet normal -0.519237 0.85463 0
    outer loop
      vertex 20.7125 4.98895 3.3
      vertex 21.7445 5.61595 1.5
      vertex 20.7125 4.98895 1.5
    endloop
  endfacet
  facet normal -1 0 0
    outer loop
      vertex 20.7125 4.46399 1.5
      vertex 20.7125 4.98895 3.3
      vertex 20.7125 4.98895 1.5
    endloop
  endfacet
  facet normal -1 -0 0
    outer loop
      vertex 20.7125 4.98895 3.3
      vertex 20.7125 4.46399 1.5
      vertex 20.7125 4.46399 3.3
    endloop
  endfacet
  facet normal 0.533702 -0.845673 0
    outer loop
      vertex 20.7125 4.46399 1.5
      vertex 21.6965 5.08499 3.3
      vertex 20.7125 4.46399 3.3
    endloop
  endfacet
  facet normal 0.533702 -0.845673 0
    outer loop
      vertex 21.6965 5.08499 3.3
      vertex 20.7125 4.46399 1.5
      vertex 21.6965 5.08499 1.5
    endloop
  endfacet
  facet normal -1 0 0
    outer loop
      vertex 21.6965 1.67397 1.5
      vertex 21.6965 5.08499 3.3
      vertex 21.6965 5.08499 1.5
    endloop
  endfacet
  facet normal -1 -0 0
    outer loop
      vertex 21.6965 5.08499 3.3
      vertex 21.6965 1.67397 1.5
      vertex 21.6965 1.67397 3.3
    endloop
  endfacet
  facet normal 0 1 -0
    outer loop
      vertex 21.6965 1.67397 1.5
      vertex 20.5865 1.67397 3.3
      vertex 21.6965 1.67397 3.3
    endloop
  endfacet
  facet normal 0 1 0
    outer loop
      vertex 20.5865 1.67397 3.3
      vertex 21.6965 1.67397 1.5
      vertex 20.5865 1.67397 1.5
    endloop
  endfacet
  facet normal -1 0 0
    outer loop
      vertex 20.5865 1.2 1.5
      vertex 20.5865 1.67397 3.3
      vertex 20.5865 1.67397 1.5
    endloop
  endfacet
  facet normal -1 -0 0
    outer loop
      vertex 20.5865 1.67397 3.3
      vertex 20.5865 1.2 1.5
      vertex 20.5865 1.2 3.3
    endloop
  endfacet
  facet normal 0 -1 0
    outer loop
      vertex 20.5865 1.2 1.5
      vertex 23.3165 1.2 3.3
      vertex 20.5865 1.2 3.3
    endloop
  endfacet
  facet normal 0 -1 -0
    outer loop
      vertex 23.3165 1.2 3.3
      vertex 20.5865 1.2 1.5
      vertex 23.3165 1.2 1.5
    endloop
  endfacet
  facet normal 1 -0 0
    outer loop
      vertex 23.3165 1.2 3.3
      vertex 23.3165 1.67397 1.5
      vertex 23.3165 1.67397 3.3
    endloop
  endfacet
  facet normal 1 0 0
    outer loop
      vertex 23.3165 1.67397 1.5
      vertex 23.3165 1.2 3.3
      vertex 23.3165 1.2 1.5
    endloop
  endfacet
  facet normal 0 1 -0
    outer loop
      vertex 19.8973 3.12 1.5
      vertex 18.3523 3.12 3.3
      vertex 19.8973 3.12 3.3
    endloop
  endfacet
  facet normal 0 1 0
    outer loop
      vertex 18.3523 3.12 3.3
      vertex 19.8973 3.12 1.5
      vertex 18.3523 3.12 1.5
    endloop
  endfacet
  facet normal -1 0 0
    outer loop
      vertex 18.3523 2.62497 1.5
      vertex 18.3523 3.12 3.3
      vertex 18.3523 3.12 1.5
    endloop
  endfacet
  facet normal -1 -0 0
    outer loop
      vertex 18.3523 3.12 3.3
      vertex 18.3523 2.62497 1.5
      vertex 18.3523 2.62497 3.3
    endloop
  endfacet
  facet normal 0 -1 0
    outer loop
      vertex 18.3523 2.62497 1.5
      vertex 19.8973 2.62497 3.3
      vertex 18.3523 2.62497 3.3
    endloop
  endfacet
  facet normal 0 -1 -0
    outer loop
      vertex 19.8973 2.62497 3.3
      vertex 18.3523 2.62497 1.5
      vertex 19.8973 2.62497 1.5
    endloop
  endfacet
  facet normal 1 -0 0
    outer loop
      vertex 19.8973 2.62497 3.3
      vertex 19.8973 3.12 1.5
      vertex 19.8973 3.12 3.3
    endloop
  endfacet
  facet normal 1 0 0
    outer loop
      vertex 19.8973 3.12 1.5
      vertex 19.8973 2.62497 3.3
      vertex 19.8973 2.62497 1.5
    endloop
  endfacet
  facet normal -0.891006 -0.453991 0
    outer loop
      vertex 4.7119 3.55623 0
      vertex 4.45623 4.05801 1.5
      vertex 4.45623 4.05801 0
    endloop
  endfacet
  facet normal -0.891006 -0.453991 0
    outer loop
      vertex 4.45623 4.05801 1.5
      vertex 4.7119 3.55623 0
      vertex 4.7119 3.55623 1.5
    endloop
  endfacet
  facet normal -0.987688 -0.156437 0
    outer loop
      vertex 4.7119 3.55623 0
      vertex 4.77139 3.18063 1.5
      vertex 4.7119 3.55623 1.5
    endloop
  endfacet
  facet normal -0.987688 -0.156438 -2.80913e-07
    outer loop
      vertex 4.8 3 0
      vertex 4.77139 3.18063 1.5
      vertex 4.7119 3.55623 0
    endloop
  endfacet
  facet normal -0.987687 -0.15644 -0
    outer loop
      vertex 4.8 3 3.3
      vertex 4.77139 3.18063 1.5
      vertex 4.8 3 0
    endloop
  endfacet
  facet normal -0.987687 -0.15644 0
    outer loop
      vertex 4.77139 3.18063 1.5
      vertex 4.8 3 3.3
      vertex 4.77139 3.18063 3.3
    endloop
  endfacet
  facet normal 0.891006 0.453991 0
    outer loop
      vertex 1.54377 1.94199 1.5
      vertex 1.2881 2.44377 0
      vertex 1.2881 2.44377 1.5
    endloop
  endfacet
  facet normal 0.891006 0.453991 0
    outer loop
      vertex 1.2881 2.44377 0
      vertex 1.54377 1.94199 1.5
      vertex 1.54377 1.94199 0
    endloop
  endfacet
  facet normal 0.156438 -0.987688 0
    outer loop
      vertex 2.44377 4.7119 0
      vertex 3 4.8 1.5
      vertex 2.44377 4.7119 1.5
    endloop
  endfacet
  facet normal 0.156438 -0.987688 0
    outer loop
      vertex 3 4.8 1.5
      vertex 2.44377 4.7119 0
      vertex 3 4.8 0
    endloop
  endfacet
  facet normal -0.707107 -0.707107 0
    outer loop
      vertex 4.45623 4.05801 0
      vertex 4.05801 4.45623 1.5
      vertex 4.05801 4.45623 0
    endloop
  endfacet
  facet normal -0.707107 -0.707107 0
    outer loop
      vertex 4.05801 4.45623 1.5
      vertex 4.45623 4.05801 0
      vertex 4.45623 4.05801 1.5
    endloop
  endfacet
  facet normal -0.707107 0.707107 0
    outer loop
      vertex 4.05801 1.54377 0
      vertex 4.45623 1.94199 1.5
      vertex 4.45623 1.94199 0
    endloop
  endfacet
  facet normal -0.707107 0.707107 0
    outer loop
      vertex 4.45623 1.94199 1.5
      vertex 4.05801 1.54377 0
      vertex 4.05801 1.54377 1.5
    endloop
  endfacet
  facet normal -0.156438 0.987688 0
    outer loop
      vertex 3.55623 1.2881 0
      vertex 3 1.2 1.5
      vertex 3.55623 1.2881 1.5
    endloop
  endfacet
  facet normal -0.156438 0.987688 0
    outer loop
      vertex 3 1.2 1.5
      vertex 3.55623 1.2881 0
      vertex 3 1.2 0
    endloop
  endfacet
  facet normal -0.987683 0.156469 0
    outer loop
      vertex 4.8 3 0
      vertex 4.79334 2.95796 1.5
      vertex 4.8 3 3.3
    endloop
  endfacet
  facet normal -0.987688 0.156438 -9.08913e-07
    outer loop
      vertex 4.7119 2.44377 0
      vertex 4.79334 2.95796 1.5
      vertex 4.8 3 0
    endloop
  endfacet
  facet normal -0.987688 0.156435 0
    outer loop
      vertex 4.79334 2.95796 1.5
      vertex 4.7119 2.44377 0
      vertex 4.7119 2.44377 1.5
    endloop
  endfacet
  facet normal -0.987683 0.156469 0
    outer loop
      vertex 4.8 3 3.3
      vertex 4.79334 2.95796 1.5
      vertex 4.79334 2.95796 3.3
    endloop
  endfacet
  facet normal -0.156438 -0.987688 0
    outer loop
      vertex 3 4.8 0
      vertex 3.55623 4.7119 1.5
      vertex 3 4.8 1.5
    endloop
  endfacet
  facet normal -0.156438 -0.987688 -0
    outer loop
      vertex 3.55623 4.7119 1.5
      vertex 3 4.8 0
      vertex 3.55623 4.7119 0
    endloop
  endfacet
  facet normal 0.891006 -0.453991 0
    outer loop
      vertex 1.2881 3.55623 1.5
      vertex 1.54377 4.05801 0
      vertex 1.54377 4.05801 1.5
    endloop
  endfacet
  facet normal 0.891006 -0.453991 0
    outer loop
      vertex 1.54377 4.05801 0
      vertex 1.2881 3.55623 1.5
      vertex 1.2881 3.55623 0
    endloop
  endfacet
  facet normal 0.156438 0.987688 -0
    outer loop
      vertex 3 1.2 0
      vertex 2.44377 1.2881 1.5
      vertex 3 1.2 1.5
    endloop
  endfacet
  facet normal 0.156438 0.987688 0
    outer loop
      vertex 2.44377 1.2881 1.5
      vertex 3 1.2 0
      vertex 2.44377 1.2881 0
    endloop
  endfacet
  facet normal 0.453991 -0.891006 0
    outer loop
      vertex 1.94199 4.45623 0
      vertex 2.44377 4.7119 1.5
      vertex 1.94199 4.45623 1.5
    endloop
  endfacet
  facet normal 0.453991 -0.891006 0
    outer loop
      vertex 2.44377 4.7119 1.5
      vertex 1.94199 4.45623 0
      vertex 2.44377 4.7119 0
    endloop
  endfacet
  facet normal -0.453991 0.891006 0
    outer loop
      vertex 4.05801 1.54377 0
      vertex 3.55623 1.2881 1.5
      vertex 4.05801 1.54377 1.5
    endloop
  endfacet
  facet normal -0.453991 0.891006 0
    outer loop
      vertex 3.55623 1.2881 1.5
      vertex 4.05801 1.54377 0
      vertex 3.55623 1.2881 0
    endloop
  endfacet
  facet normal 0.453991 0.891006 -0
    outer loop
      vertex 2.44377 1.2881 0
      vertex 1.94199 1.54377 1.5
      vertex 2.44377 1.2881 1.5
    endloop
  endfacet
  facet normal 0.453991 0.891006 0
    outer loop
      vertex 1.94199 1.54377 1.5
      vertex 2.44377 1.2881 0
      vertex 1.94199 1.54377 0
    endloop
  endfacet
  facet normal -0.891006 0.453991 0
    outer loop
      vertex 4.45623 1.94199 0
      vertex 4.7119 2.44377 1.5
      vertex 4.7119 2.44377 0
    endloop
  endfacet
  facet normal -0.891006 0.453991 0
    outer loop
      vertex 4.7119 2.44377 1.5
      vertex 4.45623 1.94199 0
      vertex 4.45623 1.94199 1.5
    endloop
  endfacet
  facet normal -0.453991 -0.891006 0
    outer loop
      vertex 3.55623 4.7119 0
      vertex 4.05801 4.45623 1.5
      vertex 3.55623 4.7119 1.5
    endloop
  endfacet
  facet normal -0.453991 -0.891006 -0
    outer loop
      vertex 4.05801 4.45623 1.5
      vertex 3.55623 4.7119 0
      vertex 4.05801 4.45623 0
    endloop
  endfacet
  facet normal 0.987688 0.156438 0
    outer loop
      vertex 1.2881 2.44377 1.5
      vertex 1.2 3 0
      vertex 1.2 3 1.5
    endloop
  endfacet
  facet normal 0.987688 0.156438 0
    outer loop
      vertex 1.2 3 0
      vertex 1.2881 2.44377 1.5
      vertex 1.2881 2.44377 0
    endloop
  endfacet
  facet normal 0.987688 -0.156438 0
    outer loop
      vertex 1.2 3 1.5
      vertex 1.2881 3.55623 0
      vertex 1.2881 3.55623 1.5
    endloop
  endfacet
  facet normal 0.987688 -0.156438 0
    outer loop
      vertex 1.2881 3.55623 0
      vertex 1.2 3 1.5
      vertex 1.2 3 0
    endloop
  endfacet
  facet normal 0.707107 0.707107 0
    outer loop
      vertex 1.94199 1.54377 1.5
      vertex 1.54377 1.94199 0
      vertex 1.54377 1.94199 1.5
    endloop
  endfacet
  facet normal 0.707107 0.707107 0
    outer loop
      vertex 1.54377 1.94199 0
      vertex 1.94199 1.54377 1.5
      vertex 1.94199 1.54377 0
    endloop
  endfacet
  facet normal 0.707107 -0.707107 0
    outer loop
      vertex 1.54377 4.05801 1.5
      vertex 1.94199 4.45623 0
      vertex 1.94199 4.45623 1.5
    endloop
  endfacet
  facet normal 0.707107 -0.707107 0
    outer loop
      vertex 1.94199 4.45623 0
      vertex 1.54377 4.05801 1.5
      vertex 1.54377 4.05801 0
    endloop
  endfacet
endsolid OpenSCAD_Model
